<svg width="164" height="164" viewBox="0 0 164 164" fill="none" xmlns="http://www.w3.org/2000/svg">
<rect x="1" y="1" width="162" height="162" rx="39" fill="#6729FF"/>
<rect x="1" y="1" width="162" height="162" rx="39" stroke="url(#paint0_linear_338_45391)" stroke-width="2"/>
<mask id="path-2-outside-1_338_45391" maskUnits="userSpaceOnUse" x="18" y="56" width="128" height="46" fill="black">
<rect fill="white" x="18" y="56" width="128" height="46"/>
<path d="M36.5198 99.561C32.9468 99.561 29.8392 98.9154 27.1969 97.6244C24.5547 96.3032 22.528 94.4417 21.1168 92.0396C19.7056 89.6376 19 86.8452 19 83.6625C19 79.2488 19.8257 75.3305 21.4771 71.9076C23.1585 68.4847 25.4254 65.8425 28.2778 63.9809C31.1303 62.0893 34.2979 61.1435 37.7809 61.1435C41.0236 61.1435 43.4857 61.9842 45.1671 63.6656C46.8485 65.317 47.6893 67.5089 47.6893 70.2412C47.6893 72.0727 47.359 73.544 46.6984 74.6549C46.0679 75.7659 45.1521 76.3213 43.9511 76.3213C43.1104 76.3213 42.4498 76.1262 41.9694 75.7358C41.489 75.3455 41.2488 74.775 41.2488 74.0244C41.2488 73.7542 41.3089 73.2587 41.429 72.5381C41.6091 71.6374 41.6992 70.9168 41.6992 70.3763C41.6992 67.644 40.243 66.2778 37.3305 66.2778C35.3488 66.2778 33.4572 66.9234 31.6557 68.2145C29.8542 69.5056 28.3979 71.4122 27.287 73.9343C26.1761 76.4264 25.6206 79.3989 25.6206 82.8519C25.6206 86.4549 26.6264 89.2473 28.6382 91.2289C30.6499 93.1806 33.6224 94.1564 37.5557 94.1564C39.5073 94.1564 41.474 93.9162 43.4557 93.4358C45.4674 92.9254 47.6893 92.1597 50.1213 91.1389C50.5717 90.9587 50.947 90.8686 51.2473 90.8686C51.7277 90.8686 52.088 91.0488 52.3282 91.4091C52.5684 91.7694 52.6885 92.2348 52.6885 92.8053C52.6885 94.6368 51.6976 95.988 49.716 96.8587C47.5842 97.7895 45.3623 98.4801 43.0503 98.9305C40.7684 99.3508 38.5916 99.561 36.5198 99.561Z"/>
<path d="M55.0551 75.3755C53.794 75.3755 52.8482 75.0903 52.2177 74.5198C51.5872 73.9193 51.2719 73.0936 51.2719 72.0427C51.2719 70.9918 51.6772 70.1211 52.4879 69.4305C53.3286 68.7099 54.3645 68.3496 55.5956 68.3496C56.7065 68.3496 57.6073 68.6198 58.2978 69.1603C58.9884 69.7007 59.3337 70.4664 59.3337 71.4572C59.3337 72.6582 58.9434 73.6191 58.1627 74.3397C57.3821 75.0302 56.3462 75.3755 55.0551 75.3755ZM54.6948 99.561C52.7431 99.561 51.3169 98.8704 50.4162 97.4892C49.5454 96.1081 49.1101 94.2765 49.1101 91.9946C49.1101 90.6435 49.2752 88.917 49.6055 86.8152C49.9658 84.6834 50.4162 82.7017 50.9566 80.8702C51.2269 79.9094 51.5872 79.2488 52.0375 78.8885C52.4879 78.5282 53.2085 78.3481 54.1994 78.3481C55.7307 78.3481 56.4963 78.8585 56.4963 79.8793C56.4963 80.63 56.2111 82.3715 55.6406 85.1038C54.92 88.4066 54.5597 90.6434 54.5597 91.8144C54.5597 92.7152 54.6798 93.4058 54.92 93.8862C55.1602 94.3666 55.5655 94.6068 56.136 94.6068C56.6765 94.6068 57.352 94.2315 58.1627 93.4808C58.9734 92.7302 60.0543 91.5442 61.4055 89.9228C61.7658 89.5025 62.1711 89.2923 62.6215 89.2923C63.0118 89.2923 63.3121 89.4725 63.5223 89.8328C63.7625 90.1931 63.8826 90.6885 63.8826 91.319C63.8826 92.52 63.5973 93.4508 63.0268 94.1114C60.0543 97.7445 57.277 99.561 54.6948 99.561Z"/>
<path d="M63.4364 99.561C62.2954 99.561 61.4847 98.9605 61.0043 97.7595C60.554 96.5585 60.3288 94.6368 60.3288 91.9946C60.3288 88.0913 60.8842 84.3832 61.9952 80.8702C62.2654 79.9994 62.7008 79.3689 63.3013 78.9786C63.9318 78.5582 64.8026 78.3481 65.9135 78.3481C66.514 78.3481 66.9344 78.4231 67.1746 78.5732C67.4148 78.7234 67.5349 79.0086 67.5349 79.429C67.5349 79.9094 67.3097 80.9903 66.8593 82.6717C66.559 83.8727 66.3188 84.9236 66.1387 85.8244C65.9585 86.7251 65.8084 87.8361 65.6883 89.1572C66.6791 86.575 67.7901 84.4732 69.0211 82.8519C70.2522 81.2305 71.4532 80.0745 72.6242 79.3839C73.8252 78.6933 74.9211 78.3481 75.9119 78.3481C77.8636 78.3481 78.8394 79.3239 78.8394 81.2755C78.8394 81.6659 78.7043 82.6117 78.4341 84.1129C78.1939 85.3139 78.0738 86.0646 78.0738 86.3648C78.0738 87.4157 78.4491 87.9412 79.1997 87.9412C80.0404 87.9412 81.1213 87.2806 82.4425 85.9595C82.8328 85.5692 83.2381 85.374 83.6585 85.374C84.0488 85.374 84.3491 85.5541 84.5593 85.9145C84.7995 86.2447 84.9196 86.6951 84.9196 87.2656C84.9196 88.3765 84.6193 89.2473 84.0188 89.8778C83.1781 90.7485 82.1873 91.4992 81.0463 92.1297C79.9353 92.7302 78.7493 93.0305 77.4883 93.0305C75.8969 93.0305 74.6809 92.6251 73.8402 91.8144C73.0295 91.0038 72.6242 89.9078 72.6242 88.5267C72.6242 88.0763 72.6692 87.6259 72.7593 87.1755C72.8193 86.575 72.8494 86.1697 72.8494 85.9595C72.8494 85.4791 72.6842 85.2389 72.3539 85.2389C71.9036 85.2389 71.3031 85.7493 70.5524 86.7702C69.8318 87.761 69.1112 89.0821 68.3906 90.7335C67.67 92.3849 67.0845 94.1264 66.6341 95.9579C66.3038 97.3691 65.9135 98.3299 65.4631 98.8404C65.0428 99.3208 64.3672 99.561 63.4364 99.561Z"/>
<path d="M89.3368 99.561C86.3943 99.561 84.0974 98.7353 82.446 97.0839C80.8246 95.4025 80.0139 93.1956 80.0139 90.4633C80.0139 88.0312 80.4943 85.8994 81.4551 84.0679C82.416 82.2363 83.662 80.8251 85.1933 79.8343C86.7246 78.8435 88.331 78.3481 90.0124 78.3481C91.6638 78.3481 92.9399 78.8435 93.8406 79.8343C94.7714 80.7951 95.2368 82.0412 95.2368 83.5725C95.2368 84.8335 94.9516 85.8994 94.3811 86.7702C93.8406 87.6409 93.12 88.0763 92.2193 88.0763C91.6488 88.0763 91.1834 87.9412 90.8231 87.6709C90.4928 87.4007 90.3277 87.0254 90.3277 86.545C90.3277 86.3348 90.3577 86.0946 90.4177 85.8244C90.4778 85.5541 90.5228 85.359 90.5528 85.2389C90.703 84.7885 90.778 84.3681 90.778 83.9778C90.778 83.5875 90.6729 83.2872 90.4628 83.0771C90.2826 82.8669 90.0124 82.7618 89.6521 82.7618C88.9615 82.7618 88.3159 83.077 87.7154 83.7076C87.1149 84.3081 86.6345 85.1338 86.2742 86.1847C85.9139 87.2356 85.7338 88.3915 85.7338 89.6526C85.7338 93.1356 87.25 94.877 90.2826 94.877C91.5136 94.877 92.8348 94.4717 94.246 93.661C95.6872 92.8203 97.0984 91.5742 98.4795 89.9228C98.8398 89.5025 99.2452 89.2923 99.6956 89.2923C100.086 89.2923 100.386 89.4725 100.596 89.8328C100.837 90.1931 100.957 90.6885 100.957 91.319C100.957 92.46 100.671 93.3908 100.101 94.1114C98.6897 95.8529 96.9933 97.204 95.0116 98.1648C93.06 99.0956 91.1684 99.561 89.3368 99.561Z"/>
<path d="M114.385 89.2923C114.776 89.2923 115.076 89.4725 115.286 89.8328C115.526 90.1931 115.646 90.6885 115.646 91.319C115.646 92.52 115.361 93.4508 114.791 94.1114C113.5 95.7027 112.088 97.0088 110.557 98.0297C109.056 99.0506 107.344 99.561 105.423 99.561C102.781 99.561 100.814 98.36 99.5228 95.9579C98.2617 93.5559 97.6312 90.4483 97.6312 86.6351C97.6312 82.972 98.0966 78.7984 99.0274 74.1145C99.9882 69.4305 101.384 65.4071 103.216 62.0443C105.077 58.6814 107.284 57 109.837 57C111.278 57 112.404 57.6756 113.214 59.0267C114.055 60.3478 114.475 62.2544 114.475 64.7466C114.475 68.3196 113.485 72.4631 111.503 77.1771C109.521 81.891 106.834 86.56 103.441 91.1839C103.651 92.4149 103.997 93.3007 104.477 93.8412C104.957 94.3516 105.588 94.6068 106.369 94.6068C107.6 94.6068 108.681 94.2615 109.611 93.5709C110.542 92.8503 111.728 91.6343 113.169 89.9228C113.53 89.5025 113.935 89.2923 114.385 89.2923ZM108.846 61.4588C108.155 61.4588 107.374 62.7048 106.504 65.1969C105.633 67.689 104.867 70.7817 104.207 74.4748C103.546 78.1679 103.186 81.7109 103.126 85.1038C105.258 81.5908 106.954 78.0778 108.215 74.5649C109.476 71.0219 110.107 67.7941 110.107 64.8817C110.107 62.5997 109.686 61.4588 108.846 61.4588Z"/>
<path d="M132.093 89.2923C132.483 89.2923 132.784 89.4725 132.994 89.8328C133.234 90.1931 133.354 90.6885 133.354 91.319C133.354 92.52 133.906 92.2798 133.335 92.9404C132.224 94.2915 129.811 96.7086 127.769 97.8495C125.758 98.9905 123.596 99.561 121.284 99.561C118.131 99.561 115.684 98.7053 113.943 96.9938C112.201 95.2824 111.331 92.9404 111.331 89.9679C111.331 87.8961 111.766 85.9745 112.637 84.203C113.507 82.4015 114.708 80.9753 116.24 79.9244C117.801 78.8735 119.557 78.3481 121.509 78.3481C123.251 78.3481 124.647 78.8735 125.698 79.9244C126.749 80.9452 127.274 82.3414 127.274 84.1129C127.274 86.1847 126.523 87.9712 125.022 89.4725C123.551 90.9437 121.044 92.1147 117.501 92.9854C118.251 94.3666 119.678 95.0572 121.779 95.0572C123.131 95.0572 124.662 94.5918 126.373 93.661C128.115 92.7002 129.46 91.2225 130.721 89.6912C131.082 89.2708 131.643 89.2923 132.093 89.2923ZM120.743 82.7618C119.633 82.7618 118.687 83.4073 117.906 84.6984C117.155 85.9895 116.78 87.5508 116.78 89.3824V89.4725C118.552 89.0521 119.948 88.4216 120.969 87.5809C121.99 86.7401 122.5 85.7643 122.5 84.6534C122.5 84.0829 122.335 83.6325 122.005 83.3022C121.704 82.9419 121.284 82.7618 120.743 82.7618Z"/>
<path d="M138.064 100.552C136.503 100.552 135.302 100.192 134.461 99.4709C133.65 98.7503 133.245 97.9396 133.245 97.0389C133.245 96.2582 133.53 95.5826 134.101 95.0121C134.671 94.4417 135.512 94.1564 136.623 94.1564C137.013 94.1564 137.464 94.2015 137.974 94.2915C138.515 94.3516 138.92 94.3966 139.19 94.4266C139.16 93.646 138.98 92.9104 138.65 92.2198C138.349 91.5292 137.959 90.8686 137.479 90.2381C136.998 89.5775 136.548 89.0071 136.128 88.5267C135.197 90.2982 134.266 91.7694 133.335 92.9404C132.434 94.1114 131.006 94.9934 129.925 96.0443C129.385 96.5847 128.886 96.9104 128.651 97.0839C128.171 97.0839 127.78 96.9188 127.48 96.5885C127.18 96.2282 127.03 95.7928 127.03 95.2824C127.03 94.6819 127.24 94.1264 127.66 93.616L128.246 92.8954C129.897 90.8536 131.143 89.1722 131.984 87.8511C132.524 86.9804 133.065 85.9445 133.605 84.7435C134.176 83.5424 134.911 81.9061 135.812 79.8343C136.383 78.5132 137.569 77.8526 139.37 77.8526C140.211 77.8526 140.796 77.9277 141.127 78.0778C141.457 78.228 141.622 78.4682 141.622 78.7984C141.622 78.9786 141.562 79.2638 141.442 79.6542C141.322 80.0445 141.157 80.4348 140.947 80.8251C140.406 81.9061 140.136 82.8218 140.136 83.5725C140.136 84.0229 140.286 84.5183 140.586 85.0587C140.917 85.5992 141.412 86.2748 142.073 87.0854C143.033 88.3465 143.754 89.4274 144.234 90.3282C144.745 91.1989 145 92.1597 145 93.2106C145 94.4717 144.7 95.6727 144.099 96.8137C143.529 97.9246 142.718 98.8254 141.667 99.516C140.616 100.207 139.415 100.552 138.064 100.552Z"/>
</mask>
<path d="M36.5198 99.561C32.9468 99.561 29.8392 98.9154 27.1969 97.6244C24.5547 96.3032 22.528 94.4417 21.1168 92.0396C19.7056 89.6376 19 86.8452 19 83.6625C19 79.2488 19.8257 75.3305 21.4771 71.9076C23.1585 68.4847 25.4254 65.8425 28.2778 63.9809C31.1303 62.0893 34.2979 61.1435 37.7809 61.1435C41.0236 61.1435 43.4857 61.9842 45.1671 63.6656C46.8485 65.317 47.6893 67.5089 47.6893 70.2412C47.6893 72.0727 47.359 73.544 46.6984 74.6549C46.0679 75.7659 45.1521 76.3213 43.9511 76.3213C43.1104 76.3213 42.4498 76.1262 41.9694 75.7358C41.489 75.3455 41.2488 74.775 41.2488 74.0244C41.2488 73.7542 41.3089 73.2587 41.429 72.5381C41.6091 71.6374 41.6992 70.9168 41.6992 70.3763C41.6992 67.644 40.243 66.2778 37.3305 66.2778C35.3488 66.2778 33.4572 66.9234 31.6557 68.2145C29.8542 69.5056 28.3979 71.4122 27.287 73.9343C26.1761 76.4264 25.6206 79.3989 25.6206 82.8519C25.6206 86.4549 26.6264 89.2473 28.6382 91.2289C30.6499 93.1806 33.6224 94.1564 37.5557 94.1564C39.5073 94.1564 41.474 93.9162 43.4557 93.4358C45.4674 92.9254 47.6893 92.1597 50.1213 91.1389C50.5717 90.9587 50.947 90.8686 51.2473 90.8686C51.7277 90.8686 52.088 91.0488 52.3282 91.4091C52.5684 91.7694 52.6885 92.2348 52.6885 92.8053C52.6885 94.6368 51.6976 95.988 49.716 96.8587C47.5842 97.7895 45.3623 98.4801 43.0503 98.9305C40.7684 99.3508 38.5916 99.561 36.5198 99.561Z" fill="url(#paint1_linear_338_45391)"/>
<path d="M55.0551 75.3755C53.794 75.3755 52.8482 75.0903 52.2177 74.5198C51.5872 73.9193 51.2719 73.0936 51.2719 72.0427C51.2719 70.9918 51.6772 70.1211 52.4879 69.4305C53.3286 68.7099 54.3645 68.3496 55.5956 68.3496C56.7065 68.3496 57.6073 68.6198 58.2978 69.1603C58.9884 69.7007 59.3337 70.4664 59.3337 71.4572C59.3337 72.6582 58.9434 73.6191 58.1627 74.3397C57.3821 75.0302 56.3462 75.3755 55.0551 75.3755ZM54.6948 99.561C52.7431 99.561 51.3169 98.8704 50.4162 97.4892C49.5454 96.1081 49.1101 94.2765 49.1101 91.9946C49.1101 90.6435 49.2752 88.917 49.6055 86.8152C49.9658 84.6834 50.4162 82.7017 50.9566 80.8702C51.2269 79.9094 51.5872 79.2488 52.0375 78.8885C52.4879 78.5282 53.2085 78.3481 54.1994 78.3481C55.7307 78.3481 56.4963 78.8585 56.4963 79.8793C56.4963 80.63 56.2111 82.3715 55.6406 85.1038C54.92 88.4066 54.5597 90.6434 54.5597 91.8144C54.5597 92.7152 54.6798 93.4058 54.92 93.8862C55.1602 94.3666 55.5655 94.6068 56.136 94.6068C56.6765 94.6068 57.352 94.2315 58.1627 93.4808C58.9734 92.7302 60.0543 91.5442 61.4055 89.9228C61.7658 89.5025 62.1711 89.2923 62.6215 89.2923C63.0118 89.2923 63.3121 89.4725 63.5223 89.8328C63.7625 90.1931 63.8826 90.6885 63.8826 91.319C63.8826 92.52 63.5973 93.4508 63.0268 94.1114C60.0543 97.7445 57.277 99.561 54.6948 99.561Z" fill="url(#paint2_linear_338_45391)"/>
<path d="M63.4364 99.561C62.2954 99.561 61.4847 98.9605 61.0043 97.7595C60.554 96.5585 60.3288 94.6368 60.3288 91.9946C60.3288 88.0913 60.8842 84.3832 61.9952 80.8702C62.2654 79.9994 62.7008 79.3689 63.3013 78.9786C63.9318 78.5582 64.8026 78.3481 65.9135 78.3481C66.514 78.3481 66.9344 78.4231 67.1746 78.5732C67.4148 78.7234 67.5349 79.0086 67.5349 79.429C67.5349 79.9094 67.3097 80.9903 66.8593 82.6717C66.559 83.8727 66.3188 84.9236 66.1387 85.8244C65.9585 86.7251 65.8084 87.8361 65.6883 89.1572C66.6791 86.575 67.7901 84.4732 69.0211 82.8519C70.2522 81.2305 71.4532 80.0745 72.6242 79.3839C73.8252 78.6933 74.9211 78.3481 75.9119 78.3481C77.8636 78.3481 78.8394 79.3239 78.8394 81.2755C78.8394 81.6659 78.7043 82.6117 78.4341 84.1129C78.1939 85.3139 78.0738 86.0646 78.0738 86.3648C78.0738 87.4157 78.4491 87.9412 79.1997 87.9412C80.0404 87.9412 81.1213 87.2806 82.4425 85.9595C82.8328 85.5692 83.2381 85.374 83.6585 85.374C84.0488 85.374 84.3491 85.5541 84.5593 85.9145C84.7995 86.2447 84.9196 86.6951 84.9196 87.2656C84.9196 88.3765 84.6193 89.2473 84.0188 89.8778C83.1781 90.7485 82.1873 91.4992 81.0463 92.1297C79.9353 92.7302 78.7493 93.0305 77.4883 93.0305C75.8969 93.0305 74.6809 92.6251 73.8402 91.8144C73.0295 91.0038 72.6242 89.9078 72.6242 88.5267C72.6242 88.0763 72.6692 87.6259 72.7593 87.1755C72.8193 86.575 72.8494 86.1697 72.8494 85.9595C72.8494 85.4791 72.6842 85.2389 72.3539 85.2389C71.9036 85.2389 71.3031 85.7493 70.5524 86.7702C69.8318 87.761 69.1112 89.0821 68.3906 90.7335C67.67 92.3849 67.0845 94.1264 66.6341 95.9579C66.3038 97.3691 65.9135 98.3299 65.4631 98.8404C65.0428 99.3208 64.3672 99.561 63.4364 99.561Z" fill="url(#paint3_linear_338_45391)"/>
<path d="M89.3368 99.561C86.3943 99.561 84.0974 98.7353 82.446 97.0839C80.8246 95.4025 80.0139 93.1956 80.0139 90.4633C80.0139 88.0312 80.4943 85.8994 81.4551 84.0679C82.416 82.2363 83.662 80.8251 85.1933 79.8343C86.7246 78.8435 88.331 78.3481 90.0124 78.3481C91.6638 78.3481 92.9399 78.8435 93.8406 79.8343C94.7714 80.7951 95.2368 82.0412 95.2368 83.5725C95.2368 84.8335 94.9516 85.8994 94.3811 86.7702C93.8406 87.6409 93.12 88.0763 92.2193 88.0763C91.6488 88.0763 91.1834 87.9412 90.8231 87.6709C90.4928 87.4007 90.3277 87.0254 90.3277 86.545C90.3277 86.3348 90.3577 86.0946 90.4177 85.8244C90.4778 85.5541 90.5228 85.359 90.5528 85.2389C90.703 84.7885 90.778 84.3681 90.778 83.9778C90.778 83.5875 90.6729 83.2872 90.4628 83.0771C90.2826 82.8669 90.0124 82.7618 89.6521 82.7618C88.9615 82.7618 88.3159 83.077 87.7154 83.7076C87.1149 84.3081 86.6345 85.1338 86.2742 86.1847C85.9139 87.2356 85.7338 88.3915 85.7338 89.6526C85.7338 93.1356 87.25 94.877 90.2826 94.877C91.5136 94.877 92.8348 94.4717 94.246 93.661C95.6872 92.8203 97.0984 91.5742 98.4795 89.9228C98.8398 89.5025 99.2452 89.2923 99.6956 89.2923C100.086 89.2923 100.386 89.4725 100.596 89.8328C100.837 90.1931 100.957 90.6885 100.957 91.319C100.957 92.46 100.671 93.3908 100.101 94.1114C98.6897 95.8529 96.9933 97.204 95.0116 98.1648C93.06 99.0956 91.1684 99.561 89.3368 99.561Z" fill="url(#paint4_linear_338_45391)"/>
<path d="M114.385 89.2923C114.776 89.2923 115.076 89.4725 115.286 89.8328C115.526 90.1931 115.646 90.6885 115.646 91.319C115.646 92.52 115.361 93.4508 114.791 94.1114C113.5 95.7027 112.088 97.0088 110.557 98.0297C109.056 99.0506 107.344 99.561 105.423 99.561C102.781 99.561 100.814 98.36 99.5228 95.9579C98.2617 93.5559 97.6312 90.4483 97.6312 86.6351C97.6312 82.972 98.0966 78.7984 99.0274 74.1145C99.9882 69.4305 101.384 65.4071 103.216 62.0443C105.077 58.6814 107.284 57 109.837 57C111.278 57 112.404 57.6756 113.214 59.0267C114.055 60.3478 114.475 62.2544 114.475 64.7466C114.475 68.3196 113.485 72.4631 111.503 77.1771C109.521 81.891 106.834 86.56 103.441 91.1839C103.651 92.4149 103.997 93.3007 104.477 93.8412C104.957 94.3516 105.588 94.6068 106.369 94.6068C107.6 94.6068 108.681 94.2615 109.611 93.5709C110.542 92.8503 111.728 91.6343 113.169 89.9228C113.53 89.5025 113.935 89.2923 114.385 89.2923ZM108.846 61.4588C108.155 61.4588 107.374 62.7048 106.504 65.1969C105.633 67.689 104.867 70.7817 104.207 74.4748C103.546 78.1679 103.186 81.7109 103.126 85.1038C105.258 81.5908 106.954 78.0778 108.215 74.5649C109.476 71.0219 110.107 67.7941 110.107 64.8817C110.107 62.5997 109.686 61.4588 108.846 61.4588Z" fill="url(#paint5_linear_338_45391)"/>
<path d="M132.093 89.2923C132.483 89.2923 132.784 89.4725 132.994 89.8328C133.234 90.1931 133.354 90.6885 133.354 91.319C133.354 92.52 133.906 92.2798 133.335 92.9404C132.224 94.2915 129.811 96.7086 127.769 97.8495C125.758 98.9905 123.596 99.561 121.284 99.561C118.131 99.561 115.684 98.7053 113.943 96.9938C112.201 95.2824 111.331 92.9404 111.331 89.9679C111.331 87.8961 111.766 85.9745 112.637 84.203C113.507 82.4015 114.708 80.9753 116.24 79.9244C117.801 78.8735 119.557 78.3481 121.509 78.3481C123.251 78.3481 124.647 78.8735 125.698 79.9244C126.749 80.9452 127.274 82.3414 127.274 84.1129C127.274 86.1847 126.523 87.9712 125.022 89.4725C123.551 90.9437 121.044 92.1147 117.501 92.9854C118.251 94.3666 119.678 95.0572 121.779 95.0572C123.131 95.0572 124.662 94.5918 126.373 93.661C128.115 92.7002 129.46 91.2225 130.721 89.6912C131.082 89.2708 131.643 89.2923 132.093 89.2923ZM120.743 82.7618C119.633 82.7618 118.687 83.4073 117.906 84.6984C117.155 85.9895 116.78 87.5508 116.78 89.3824V89.4725C118.552 89.0521 119.948 88.4216 120.969 87.5809C121.99 86.7401 122.5 85.7643 122.5 84.6534C122.5 84.0829 122.335 83.6325 122.005 83.3022C121.704 82.9419 121.284 82.7618 120.743 82.7618Z" fill="url(#paint6_linear_338_45391)"/>
<path d="M138.064 100.552C136.503 100.552 135.302 100.192 134.461 99.4709C133.65 98.7503 133.245 97.9396 133.245 97.0389C133.245 96.2582 133.53 95.5826 134.101 95.0121C134.671 94.4417 135.512 94.1564 136.623 94.1564C137.013 94.1564 137.464 94.2015 137.974 94.2915C138.515 94.3516 138.92 94.3966 139.19 94.4266C139.16 93.646 138.98 92.9104 138.65 92.2198C138.349 91.5292 137.959 90.8686 137.479 90.2381C136.998 89.5775 136.548 89.0071 136.128 88.5267C135.197 90.2982 134.266 91.7694 133.335 92.9404C132.434 94.1114 131.006 94.9934 129.925 96.0443C129.385 96.5847 128.886 96.9104 128.651 97.0839C128.171 97.0839 127.78 96.9188 127.48 96.5885C127.18 96.2282 127.03 95.7928 127.03 95.2824C127.03 94.6819 127.24 94.1264 127.66 93.616L128.246 92.8954C129.897 90.8536 131.143 89.1722 131.984 87.8511C132.524 86.9804 133.065 85.9445 133.605 84.7435C134.176 83.5424 134.911 81.9061 135.812 79.8343C136.383 78.5132 137.569 77.8526 139.37 77.8526C140.211 77.8526 140.796 77.9277 141.127 78.0778C141.457 78.228 141.622 78.4682 141.622 78.7984C141.622 78.9786 141.562 79.2638 141.442 79.6542C141.322 80.0445 141.157 80.4348 140.947 80.8251C140.406 81.9061 140.136 82.8218 140.136 83.5725C140.136 84.0229 140.286 84.5183 140.586 85.0587C140.917 85.5992 141.412 86.2748 142.073 87.0854C143.033 88.3465 143.754 89.4274 144.234 90.3282C144.745 91.1989 145 92.1597 145 93.2106C145 94.4717 144.7 95.6727 144.099 96.8137C143.529 97.9246 142.718 98.8254 141.667 99.516C140.616 100.207 139.415 100.552 138.064 100.552Z" fill="url(#paint7_linear_338_45391)"/>
<path d="M27.1969 97.6244L26.7497 98.5188L26.7579 98.5228L27.1969 97.6244ZM21.1168 92.0396L20.2546 92.5462L21.1168 92.0396ZM21.4771 71.9076L20.5795 71.4667L20.5764 71.4731L21.4771 71.9076ZM28.2778 63.9809L28.8244 64.8184L28.8305 64.8143L28.2778 63.9809ZM45.1671 63.6656L44.46 64.3728L44.4664 64.3791L45.1671 63.6656ZM46.6984 74.6549L45.8389 74.1439L45.8337 74.1525L45.8287 74.1613L46.6984 74.6549ZM41.9694 75.7358L42.6 74.9597H42.6L41.9694 75.7358ZM41.429 72.5381L40.4484 72.342L40.4452 72.3578L40.4426 72.3737L41.429 72.5381ZM31.6557 68.2145L31.0732 67.4017L31.0732 67.4017L31.6557 68.2145ZM27.287 73.9343L28.2004 74.3415L28.2022 74.3374L27.287 73.9343ZM28.6382 91.2289L27.9364 91.9414L27.9418 91.9467L28.6382 91.2289ZM43.4557 93.4358L43.6913 94.4077L43.7016 94.4051L43.4557 93.4358ZM50.1213 91.1389L49.7499 90.2104L49.7421 90.2135L49.7343 90.2168L50.1213 91.1389ZM52.3282 91.4091L51.4961 91.9638V91.9638L52.3282 91.4091ZM49.716 96.8587L50.1161 97.7752L50.1182 97.7742L49.716 96.8587ZM43.0503 98.9305L43.2315 99.914L43.2415 99.912L43.0503 98.9305ZM52.2177 74.5198L51.528 75.244L51.5373 75.2528L51.5468 75.2614L52.2177 74.5198ZM52.4879 69.4305L53.1364 70.1918L53.1387 70.1898L52.4879 69.4305ZM58.1627 74.3397L58.8253 75.0887L58.8332 75.0816L58.841 75.0745L58.1627 74.3397ZM50.4162 97.4892L49.5702 98.0225L49.5744 98.0291L49.5786 98.0355L50.4162 97.4892ZM49.6055 86.8152L48.6194 86.6486L48.6176 86.66L49.6055 86.8152ZM50.9566 80.8702L51.9158 81.1532L51.9193 81.1409L50.9566 80.8702ZM55.6406 85.1038L56.6176 85.3169L56.6195 85.3081L55.6406 85.1038ZM58.1627 93.4808L57.4833 92.7471L58.1627 93.4808ZM61.4055 89.9228L60.6461 89.272L60.6372 89.2827L61.4055 89.9228ZM63.5223 89.8328L62.6585 90.3366L62.6736 90.3625L62.6902 90.3875L63.5223 89.8328ZM63.0268 94.1114L62.27 93.4578L62.2613 93.4678L62.2529 93.4781L63.0268 94.1114ZM61.0043 97.7595L60.068 98.1106L60.0718 98.1208L60.0759 98.1309L61.0043 97.7595ZM61.9952 80.8702L62.9487 81.1717L62.9502 81.1666L61.9952 80.8702ZM63.3013 78.9786L63.8463 79.8171L63.856 79.8106L63.3013 78.9786ZM66.8593 82.6717L65.8933 82.413L65.8912 82.4211L65.8891 82.4292L66.8593 82.6717ZM65.6883 89.1572L64.6924 89.0667L66.6219 89.5154L65.6883 89.1572ZM69.0211 82.8519L68.2247 82.2472L69.0211 82.8519ZM72.6242 79.3839L72.1257 78.517L72.1162 78.5226L72.6242 79.3839ZM78.4341 84.1129L79.4147 84.309L79.4165 84.2996L79.4183 84.2901L78.4341 84.1129ZM82.4425 85.9595L81.7354 85.2524L82.4425 85.9595ZM84.5593 85.9145L83.6955 86.4183L83.7209 86.4619L83.7505 86.5026L84.5593 85.9145ZM84.0188 89.8778L84.7382 90.5724L84.7429 90.5675L84.0188 89.8778ZM81.0463 92.1297L81.5218 93.0095L81.53 93.0049L81.0463 92.1297ZM73.8402 91.8144L73.1331 92.5215L73.1395 92.528L73.1461 92.5343L73.8402 91.8144ZM72.7593 87.1755L73.7399 87.3716L73.7495 87.3237L73.7543 87.275L72.7593 87.1755ZM70.5524 86.7702L69.7468 86.1778L69.7437 86.182L70.5524 86.7702ZM68.3906 90.7335L67.474 90.3336L68.3906 90.7335ZM66.6341 95.9579L65.663 95.7191L65.6604 95.7301L66.6341 95.9579ZM65.4631 98.8404L64.7133 98.1788L64.7105 98.1819L65.4631 98.8404ZM82.446 97.0839L81.7261 97.778L81.7324 97.7846L81.7389 97.791L82.446 97.0839ZM81.4551 84.0679L82.3407 84.5324L81.4551 84.0679ZM85.1933 79.8343L84.6501 78.9947V78.9947L85.1933 79.8343ZM93.8406 79.8343L93.1007 80.507L93.1113 80.5187L93.1224 80.5301L93.8406 79.8343ZM94.3811 86.7702L93.5446 86.2221L93.5379 86.2324L93.5314 86.2428L94.3811 86.7702ZM90.8231 87.6709L90.1898 88.4449L90.2062 88.4583L90.2231 88.4709L90.8231 87.6709ZM90.5528 85.2389L89.6042 84.9226L89.592 84.9591L89.5827 84.9963L90.5528 85.2389ZM90.4628 83.0771L89.7035 83.7278L89.7285 83.757L89.7557 83.7842L90.4628 83.0771ZM87.7154 83.7076L88.4225 84.4147L88.4312 84.4061L88.4396 84.3972L87.7154 83.7076ZM86.2742 86.1847L85.3283 85.8604V85.8604L86.2742 86.1847ZM94.246 93.661L94.7441 94.5281L94.7498 94.5248L94.246 93.661ZM98.4795 89.9228L97.7202 89.272L97.7125 89.2813L98.4795 89.9228ZM100.596 89.8328L99.7326 90.3366L99.7477 90.3625L99.7643 90.3875L100.596 89.8328ZM100.101 94.1114L100.878 94.741L100.885 94.7321L100.101 94.1114ZM95.0116 98.1648L95.4421 99.0674L95.4479 99.0646L95.0116 98.1648ZM115.286 89.8328L114.422 90.3366L114.437 90.3625L114.454 90.3875L115.286 89.8328ZM114.791 94.1114L114.034 93.4578L114.024 93.4694L114.014 93.4813L114.791 94.1114ZM110.557 98.0297L110.002 97.1976L109.995 97.2028L110.557 98.0297ZM99.5228 95.9579L98.6374 96.4228L98.642 96.4314L99.5228 95.9579ZM99.0274 74.1145L98.0478 73.9135L98.0466 73.9196L99.0274 74.1145ZM103.216 62.0443L102.341 61.5599L102.338 61.566L103.216 62.0443ZM113.214 59.0267L112.357 59.5412L112.364 59.5525L112.371 59.5636L113.214 59.0267ZM111.503 77.1771L110.581 76.7895L111.503 77.1771ZM103.441 91.1839L102.635 90.5923L102.384 90.9342L102.455 91.3522L103.441 91.1839ZM104.477 93.8412L103.73 94.5055L103.739 94.5162L103.749 94.5265L104.477 93.8412ZM109.611 93.5709L110.207 94.374L110.215 94.3679L110.224 94.3616L109.611 93.5709ZM113.169 89.9228L112.41 89.272L112.404 89.2787L113.169 89.9228ZM106.504 65.1969L105.56 64.8671V64.8671L106.504 65.1969ZM104.207 74.4748L103.222 74.2987V74.2987L104.207 74.4748ZM103.126 85.1038L102.126 85.0861L102.061 88.7869L103.981 85.6226L103.126 85.1038ZM108.215 74.5649L109.156 74.9027L109.157 74.9002L108.215 74.5649ZM132.994 89.8328L132.13 90.3366L132.145 90.3625L132.162 90.3875L132.994 89.8328ZM127.769 97.8495L127.282 96.9766L127.276 96.9797L127.769 97.8495ZM113.943 96.9938L113.242 97.7071L113.943 96.9938ZM112.637 84.203L113.534 84.6441L113.537 84.6382L112.637 84.203ZM116.24 79.9244L115.681 79.0948L115.674 79.0999L116.24 79.9244ZM125.698 79.9244L124.991 80.6315L124.996 80.6366L125.001 80.6417L125.698 79.9244ZM125.022 89.4725L124.315 88.7654L125.022 89.4725ZM117.501 92.9854L117.262 92.0143L116.003 92.3238L116.622 93.4629L117.501 92.9854ZM126.373 93.661L126.851 94.5395L126.856 94.5366L126.373 93.661ZM130.721 89.6912L129.962 89.0404L129.956 89.0479L129.949 89.0555L130.721 89.6912ZM117.906 84.6984L117.05 84.181L117.046 84.1884L117.042 84.1958L117.906 84.6984ZM116.78 89.4725H115.78V90.7375L117.011 90.4454L116.78 89.4725ZM120.969 87.5809L120.333 86.8089L120.969 87.5809ZM122.005 83.3022L121.236 83.9424L121.265 83.9773L121.297 84.0093L122.005 83.3022ZM134.461 99.4709L133.797 100.218L133.803 100.224L133.81 100.23L134.461 99.4709ZM134.101 95.0121L134.808 95.7192L134.101 95.0121ZM137.974 94.2915L137.8 95.2763L137.832 95.2819L137.864 95.2854L137.974 94.2915ZM139.19 94.4266L139.08 95.4205L140.234 95.5488L140.189 94.3882L139.19 94.4266ZM138.65 92.2198L137.733 92.6185L137.74 92.635L137.748 92.6512L138.65 92.2198ZM137.479 90.2381L136.67 90.8263L136.676 90.8353L136.683 90.8442L137.479 90.2381ZM136.128 88.5267L136.88 87.8682L135.92 86.7712L135.242 88.0615L136.128 88.5267ZM129.925 96.0443L129.228 95.3272L129.218 95.3372L129.925 96.0443ZM128.651 97.0839V98.0839H128.981L129.246 97.888L128.651 97.0839ZM127.48 96.5885L126.712 97.2287L126.726 97.2452L126.74 97.2611L127.48 96.5885ZM127.66 93.616L128.432 94.2517L128.436 94.2466L127.66 93.616ZM128.246 92.8954L129.022 93.5259L129.023 93.5242L128.246 92.8954ZM131.984 87.8511L132.828 88.388L132.834 88.3785L131.984 87.8511ZM133.605 84.7435L132.702 84.3144L132.698 84.3237L132.693 84.3331L133.605 84.7435ZM135.812 79.8343L136.729 80.233L136.73 80.2307L135.812 79.8343ZM141.127 78.0778L141.541 77.1675L141.127 78.0778ZM141.442 79.6542L142.398 79.9482L141.442 79.6542ZM140.947 80.8251L140.066 80.351L140.059 80.3644L140.052 80.3779L140.947 80.8251ZM140.586 85.0587L139.712 85.5444L139.722 85.5625L139.733 85.5802L140.586 85.0587ZM142.073 87.0854L142.868 86.4794L142.858 86.4664L142.848 86.4538L142.073 87.0854ZM144.234 90.3282L143.352 90.7988L143.361 90.8165L143.372 90.8339L144.234 90.3282ZM144.099 96.8137L143.214 96.3479L143.21 96.3569L144.099 96.8137ZM141.667 99.516L142.216 100.352L141.667 99.516ZM36.5198 98.561C33.0668 98.561 30.1152 97.9373 27.636 96.7259L26.7579 98.5228C29.5631 99.8936 32.8268 100.561 36.5198 100.561V98.561ZM27.6441 96.7299C25.1639 95.4898 23.2862 93.7582 21.979 91.5331L20.2546 92.5462C21.7697 95.1252 23.9455 97.1167 26.7497 98.5188L27.6441 96.7299ZM21.979 91.5331C20.6703 89.3054 20 86.6929 20 83.6625H18C18 86.9975 18.7409 89.9698 20.2546 92.5462L21.979 91.5331ZM20 83.6625C20 79.3751 20.8015 75.6093 22.3778 72.3421L20.5764 71.4731C18.8499 75.0517 18 79.1226 18 83.6625H20ZM22.3746 72.3485C23.9865 69.0672 26.1399 66.5703 28.8244 64.8183L27.7313 63.1435C24.7109 65.1147 22.3305 67.9023 20.5795 71.4667L22.3746 72.3485ZM28.8305 64.8143C31.516 63.0334 34.4908 62.1435 37.7809 62.1435V60.1435C34.105 60.1435 30.7445 61.1452 27.7252 63.1475L28.8305 64.8143ZM37.7809 62.1435C40.8573 62.1435 43.0261 62.9388 44.46 64.3727L45.8742 62.9585C43.9454 61.0297 41.19 60.1435 37.7809 60.1435V62.1435ZM44.4664 64.3791C45.9256 65.8123 46.6893 67.7308 46.6893 70.2412H48.6893C48.6893 67.2869 47.7714 64.8218 45.8678 62.9522L44.4664 64.3791ZM46.6893 70.2412C46.6893 71.964 46.3769 73.239 45.8389 74.1439L47.558 75.166C48.341 73.849 48.6893 72.1815 48.6893 70.2412H46.6893ZM45.8287 74.1613C45.362 74.9837 44.765 75.3213 43.9511 75.3213V77.3213C45.5393 77.3213 46.7738 76.548 47.5681 75.1485L45.8287 74.1613ZM43.9511 75.3213C43.2581 75.3213 42.8475 75.1608 42.6 74.9597L41.3388 76.512C42.0521 77.0915 42.9627 77.3213 43.9511 77.3213V75.3213ZM42.6 74.9597C42.4032 74.7998 42.2488 74.5446 42.2488 74.0244H40.2488C40.2488 75.0054 40.5749 75.8912 41.3388 76.512L42.6 74.9597ZM42.2488 74.0244C42.2488 73.8484 42.294 73.4306 42.4154 72.7025L40.4426 72.3737C40.3237 73.0869 40.2488 73.6599 40.2488 74.0244H42.2488ZM42.4095 72.7343C42.595 71.807 42.6992 71.0125 42.6992 70.3763H40.6992C40.6992 70.821 40.6232 71.4678 40.4484 72.342L42.4095 72.7343ZM42.6992 70.3763C42.6992 68.8391 42.2865 67.5069 41.2912 66.5732C40.3079 65.6507 38.9255 65.2778 37.3305 65.2778V67.2778C38.6479 67.2778 39.4499 67.5881 39.9228 68.0318C40.3838 68.4642 40.6992 69.1812 40.6992 70.3763H42.6992ZM37.3305 65.2778C35.1154 65.2778 33.0235 66.0039 31.0732 67.4017L32.2382 69.0273C33.8909 67.8429 35.5822 67.2778 37.3305 67.2778V65.2778ZM31.0732 67.4017C29.0946 68.8197 27.5376 70.8848 26.3719 73.5312L28.2022 74.3374C29.2583 71.9396 30.6138 70.1915 32.2382 69.0273L31.0732 67.4017ZM26.3736 73.5272C25.1926 76.1766 24.6206 79.2946 24.6206 82.8519H26.6206C26.6206 79.5033 27.1596 76.6762 28.2004 74.3415L26.3736 73.5272ZM24.6206 82.8519C24.6206 86.645 25.6848 89.7234 27.9364 91.9413L29.3399 90.5165C27.5681 88.7711 26.6206 86.2648 26.6206 82.8519H24.6206ZM27.9418 91.9467C30.2043 94.1416 33.4682 95.1564 37.5557 95.1564V93.1564C33.7765 93.1564 31.0954 92.2195 29.3345 90.5112L27.9418 91.9467ZM37.5557 95.1564C39.5902 95.1564 41.6359 94.9059 43.6913 94.4077L43.2201 92.464C41.3121 92.9265 39.4245 93.1564 37.5557 93.1564V95.1564ZM43.7016 94.4051C45.7723 93.8797 48.0421 93.0961 50.5084 92.0609L49.7343 90.2168C47.3364 91.2233 45.1625 91.9711 43.2097 92.4665L43.7016 94.4051ZM50.4927 92.0673C50.8888 91.9089 51.1285 91.8686 51.2473 91.8686V89.8686C50.7655 89.8686 50.2546 90.0085 49.7499 90.2104L50.4927 92.0673ZM51.2473 91.8686C51.3619 91.8686 51.4136 91.8897 51.4306 91.8982C51.4435 91.9046 51.4651 91.9172 51.4961 91.9638L53.1602 90.8544C52.7119 90.1819 52.019 89.8686 51.2473 89.8686V91.8686ZM51.4961 91.9638C51.597 92.1151 51.6885 92.3705 51.6885 92.8053H53.6885C53.6885 92.099 53.5398 91.4237 53.1602 90.8544L51.4961 91.9638ZM51.6885 92.8053C51.6885 93.5292 51.4968 94.113 51.139 94.6009C50.7735 95.0992 50.1896 95.5583 49.3137 95.9432L50.1182 97.7742C51.224 97.2883 52.1264 96.6365 52.7518 95.7837C53.3848 94.9205 53.6885 93.9129 53.6885 92.8053H51.6885ZM49.3158 95.9423C47.2519 96.8434 45.1002 97.5123 42.8591 97.9489L43.2415 99.912C45.6244 99.4478 47.9164 98.7356 50.1161 97.7752L49.3158 95.9423ZM42.8692 97.947C40.64 98.3576 38.5241 98.561 36.5198 98.561V100.561C38.6591 100.561 40.8968 100.344 43.2315 99.9139L42.8692 97.947ZM55.0551 74.3755C53.9248 74.3755 53.2638 74.1177 52.8886 73.7783L51.5468 75.2614C52.4327 76.0629 53.6632 76.3755 55.0551 76.3755V74.3755ZM52.9073 73.7957C52.5152 73.4222 52.2719 72.8809 52.2719 72.0427H50.2719C50.2719 73.3063 50.6591 74.4164 51.528 75.244L52.9073 73.7957ZM52.2719 72.0427C52.2719 71.2893 52.5453 70.6953 53.1364 70.1918L51.8395 68.6693C50.8092 69.5469 50.2719 70.6943 50.2719 72.0427H52.2719ZM53.1387 70.1898C53.7776 69.6421 54.5747 69.3496 55.5956 69.3496V67.3496C54.1544 67.3496 52.8797 67.7777 51.8371 68.6713L53.1387 70.1898ZM55.5956 69.3496C56.5436 69.3496 57.2093 69.5782 57.6815 69.9478L58.9141 68.3728C58.0052 67.6615 56.8693 67.3496 55.5956 67.3496V69.3496ZM57.6815 69.9478C58.0963 70.2724 58.3337 70.7285 58.3337 71.4572H60.3337C60.3337 70.2042 59.8806 69.1291 58.9141 68.3728L57.6815 69.9478ZM58.3337 71.4572C58.3337 72.4193 58.0322 73.0992 57.4844 73.6049L58.841 75.0745C59.8545 74.1389 60.3337 72.8971 60.3337 71.4572H58.3337ZM57.5001 73.5907C56.9431 74.0834 56.1627 74.3755 55.0551 74.3755V76.3755C56.5297 76.3755 57.821 75.9771 58.8253 75.0887L57.5001 73.5907ZM54.6948 98.561C53.0092 98.561 51.9338 97.9857 51.2538 96.943L49.5786 98.0355C50.7 99.7551 52.4771 100.561 54.6948 100.561V98.561ZM51.2621 96.9559C50.5245 95.786 50.1101 94.1597 50.1101 91.9946H48.1101C48.1101 94.3933 48.5664 96.4302 49.5702 98.0225L51.2621 96.9559ZM50.1101 91.9946C50.1101 90.7161 50.2671 89.0465 50.5934 86.9704L48.6176 86.66C48.2833 88.7875 48.1101 90.5708 48.1101 91.9946H50.1101ZM50.5915 86.9819C50.946 84.8843 51.3879 82.9419 51.9157 81.1532L49.9975 80.5872C49.4444 82.4615 48.9856 84.4825 48.6195 86.6486L50.5915 86.9819ZM51.9193 81.1409C52.1697 80.2504 52.4562 79.8342 52.6622 79.6694L51.4128 78.1076C50.7181 78.6634 50.284 79.5684 49.994 80.5994L51.9193 81.1409ZM52.6622 79.6694C52.8469 79.5216 53.2881 79.3481 54.1994 79.3481V77.3481C53.129 77.3481 52.1289 77.5348 51.4128 78.1076L52.6622 79.6694ZM54.1994 79.3481C54.8855 79.3481 55.2252 79.4681 55.3674 79.5629C55.4252 79.6015 55.4463 79.6325 55.4583 79.6566C55.4725 79.6849 55.4963 79.7497 55.4963 79.8793H57.4963C57.4963 79.0776 57.1718 78.3622 56.4768 77.8988C55.8533 77.4832 55.0445 77.3481 54.1994 77.3481V79.3481ZM55.4963 79.8793C55.4963 80.5046 55.2391 82.1339 54.6617 84.8994L56.6195 85.3081C57.183 82.609 57.4963 80.7554 57.4963 79.8793H55.4963ZM54.6636 84.8906C53.9463 88.1783 53.5597 90.5187 53.5597 91.8144H55.5597C55.5597 90.7682 55.8937 88.6348 56.6176 85.3169L54.6636 84.8906ZM53.5597 91.8144C53.5597 92.7785 53.684 93.6503 54.0256 94.3334L55.8144 93.439C55.6755 93.1612 55.5597 92.6519 55.5597 91.8144H53.5597ZM54.0256 94.3334C54.2192 94.7207 54.5042 95.0558 54.8943 95.2869C55.2809 95.516 55.7092 95.6068 56.136 95.6068V93.6068C55.9923 93.6068 55.9327 93.5775 55.9139 93.5664C55.8987 93.5573 55.861 93.5321 55.8144 93.439L54.0256 94.3334ZM56.136 95.6068C57.0866 95.6068 58.0105 94.9846 58.8421 94.2146L57.4833 92.7471C56.6936 93.4783 56.2663 93.6068 56.136 93.6068V95.6068ZM58.8421 94.2146C59.7011 93.4192 60.815 92.1935 62.1737 90.563L60.6372 89.2827C59.2937 90.8949 58.2457 92.0412 57.4833 92.7471L58.8421 94.2146ZM62.1647 90.5736C62.3825 90.3196 62.5288 90.2923 62.6215 90.2923V88.2923C61.8134 88.2923 61.149 88.6854 60.6462 89.272L62.1647 90.5736ZM62.6215 90.2923C62.6418 90.2923 62.6483 90.2946 62.6449 90.2937C62.6409 90.2926 62.6331 90.2898 62.6249 90.2849C62.617 90.2802 62.6158 90.2777 62.6207 90.2829C62.6262 90.2887 62.6398 90.3046 62.6585 90.3366L64.386 89.3289C64.0117 88.6871 63.3963 88.2923 62.6215 88.2923V90.2923ZM62.6902 90.3875C62.7815 90.5245 62.8826 90.8005 62.8826 91.319H64.8826C64.8826 90.5765 64.7434 89.8617 64.3543 89.2781L62.6902 90.3875ZM62.8826 91.319C62.8826 92.3703 62.6333 93.0371 62.27 93.4578L63.7837 94.765C64.5613 93.8645 64.8826 92.6698 64.8826 91.319H62.8826ZM62.2529 93.4781C59.3246 97.0572 56.805 98.561 54.6948 98.561V100.561C57.7489 100.561 60.784 98.4317 63.8008 94.7446L62.2529 93.4781ZM63.4364 98.561C63.0509 98.561 62.7788 98.4633 62.5679 98.3071C62.3482 98.1443 62.1233 97.8643 61.9328 97.3881L60.0759 98.1309C60.3658 98.8556 60.7865 99.4764 61.3774 99.9142C61.9772 100.358 62.6809 100.561 63.4364 100.561V98.561ZM61.9407 97.4083C61.5571 96.3854 61.3288 94.6166 61.3288 91.9946H59.3288C59.3288 94.6571 59.5509 96.7315 60.068 98.1106L61.9407 97.4083ZM61.3288 91.9946C61.3288 88.1875 61.8703 84.5815 62.9486 81.1717L61.0417 80.5687C59.8982 84.1848 59.3288 87.9951 59.3288 91.9946H61.3288ZM62.9502 81.1666C63.1706 80.4566 63.49 80.0486 63.8463 79.817L62.7563 78.1401C61.9116 78.6892 61.3602 79.5422 61.0401 80.5738L62.9502 81.1666ZM63.856 79.8106C64.2623 79.5398 64.9129 79.3481 65.9135 79.3481V77.3481C64.6922 77.3481 63.6013 77.5767 62.7466 78.1465L63.856 79.8106ZM65.9135 79.3481C66.1765 79.3481 66.3692 79.3648 66.5033 79.3888C66.6454 79.4141 66.6732 79.4391 66.6446 79.4212L67.7046 77.7252C67.2065 77.414 66.5339 77.3481 65.9135 77.3481V79.3481ZM66.6446 79.4212C66.6139 79.4021 66.5853 79.3771 66.5618 79.3487C66.5389 79.321 66.5275 79.2981 66.5231 79.2878C66.5192 79.2784 66.5224 79.2828 66.5265 79.3068C66.5306 79.331 66.5349 79.3707 66.5349 79.429H68.5349C68.5349 78.8434 68.3625 78.1364 67.7046 77.7252L66.6446 79.4212ZM66.5349 79.429C66.5349 79.557 66.4989 79.859 66.387 80.396C66.2797 80.9108 66.1161 81.5814 65.8933 82.413L67.8252 82.9304C68.0529 82.0806 68.227 81.3701 68.3449 80.8039C68.4583 80.26 68.5349 79.7813 68.5349 79.429H66.5349ZM65.8891 82.4292C65.5863 83.6407 65.3422 84.7077 65.1581 85.6283L67.1193 86.0205C67.2954 85.1395 67.5318 84.1048 67.8294 82.9142L65.8891 82.4292ZM65.1581 85.6283C64.9687 86.5755 64.8144 87.7242 64.6924 89.0667L66.6842 89.2477C66.8024 87.948 66.9484 86.8748 67.1193 86.0205L65.1581 85.6283ZM66.6219 89.5154C67.5901 86.9922 68.66 84.9812 69.8176 83.4566L68.2247 82.2472C66.9202 83.9652 65.7681 86.1578 64.7547 88.7989L66.6219 89.5154ZM69.8176 83.4566C71.0054 81.8921 72.1143 80.8455 73.1321 80.2453L72.1162 78.5226C70.792 79.3035 69.4989 80.5689 68.2247 82.2472L69.8176 83.4566ZM73.1226 80.2508C74.2294 79.6145 75.1521 79.3481 75.9119 79.3481V77.3481C74.6901 77.3481 73.421 77.7722 72.1257 78.517L73.1226 80.2508ZM75.9119 79.3481C76.7336 79.3481 77.1662 79.5528 77.4004 79.787C77.6347 80.0213 77.8394 80.4538 77.8394 81.2755H79.8394C79.8394 80.1456 79.5563 79.1144 78.8147 78.3728C78.0731 77.6312 77.0419 77.3481 75.9119 77.3481V79.3481ZM77.8394 81.2755C77.8394 81.5567 77.7258 82.4028 77.4499 83.9358L79.4183 84.2901C79.6828 82.8205 79.8394 81.775 79.8394 81.2755H77.8394ZM77.4535 83.9168C77.3322 84.5234 77.2393 85.0253 77.1764 85.4187C77.1169 85.7909 77.0738 86.1257 77.0738 86.3648H79.0738C79.0738 86.3037 79.0907 86.1131 79.1513 85.7347C79.2085 85.3774 79.2958 84.9035 79.4147 84.309L77.4535 83.9168ZM77.0738 86.3648C77.0738 86.9791 77.178 87.6194 77.5415 88.1283C77.9493 88.6992 78.5616 88.9412 79.1997 88.9412V86.9412C79.1283 86.9412 79.1137 86.9288 79.13 86.9365C79.1378 86.9401 79.1475 86.946 79.1568 86.9538C79.1659 86.9614 79.1697 86.9668 79.169 86.9658C79.1668 86.9627 79.1413 86.925 79.117 86.8229C79.0925 86.7202 79.0738 86.5712 79.0738 86.3648H77.0738ZM79.1997 88.9412C79.8748 88.9412 80.5388 88.6801 81.1624 88.299C81.7939 87.9131 82.4569 87.3593 83.1496 86.6666L81.7354 85.2524C81.1069 85.8808 80.5689 86.3178 80.1195 86.5925C79.6621 86.872 79.3654 86.9412 79.1997 86.9412V88.9412ZM83.1496 86.6666C83.4134 86.4028 83.5787 86.374 83.6585 86.374V84.374C82.8976 84.374 82.2522 84.7355 81.7354 85.2524L83.1496 86.6666ZM83.6585 86.374C83.6788 86.374 83.6853 86.3763 83.6819 86.3754C83.6779 86.3743 83.6701 86.3715 83.6619 86.3666C83.654 86.3619 83.6528 86.3594 83.6577 86.3646C83.6632 86.3704 83.6768 86.3863 83.6955 86.4183L85.423 85.4106C85.0487 84.7688 84.4333 84.374 83.6585 84.374V86.374ZM83.7505 86.5026C83.8257 86.6061 83.9196 86.8248 83.9196 87.2656H85.9196C85.9196 86.5654 85.7732 85.8834 85.368 85.3263L83.7505 86.5026ZM83.9196 87.2656C83.9196 88.1935 83.673 88.7909 83.2947 89.1881L84.7429 90.5675C85.5656 89.7037 85.9196 88.5596 85.9196 87.2656H83.9196ZM83.2994 89.1832C82.5329 89.977 81.6231 90.6684 80.5626 91.2545L81.53 93.0049C82.7514 92.33 83.8232 91.52 84.7382 90.5724L83.2994 89.1832ZM80.5708 91.25C79.6057 91.7717 78.5831 92.0305 77.4883 92.0305V94.0305C78.9156 94.0305 80.265 93.6888 81.5218 93.0094L80.5708 91.25ZM77.4883 92.0305C76.0602 92.0305 75.1296 91.6686 74.5343 91.0946L73.1461 92.5343C74.2322 93.5817 75.7337 94.0305 77.4883 94.0305V92.0305ZM74.5473 91.1073C73.9616 90.5216 73.6242 89.7006 73.6242 88.5267H71.6242C71.6242 90.115 72.0975 91.4859 73.1331 92.5215L74.5473 91.1073ZM73.6242 88.5267C73.6242 88.1434 73.6624 87.7587 73.7399 87.3716L71.7787 86.9794C71.676 87.4931 71.6242 88.0091 71.6242 88.5267H73.6242ZM73.7543 87.275C73.8137 86.6812 73.8494 86.2273 73.8494 85.9595H71.8494C71.8494 86.112 71.825 86.4688 71.7642 87.076L73.7543 87.275ZM73.8494 85.9595C73.8494 85.6357 73.7993 85.2158 73.5495 84.8525C73.2533 84.4216 72.7974 84.2389 72.3539 84.2389V86.2389C72.3152 86.2389 72.233 86.2315 72.1344 86.1837C72.0311 86.1337 71.9524 86.0596 71.9015 85.9856C71.855 85.918 71.8439 85.8688 71.8437 85.8676C71.8434 85.8664 71.8494 85.8935 71.8494 85.9595H73.8494ZM72.3539 84.2389C71.769 84.2389 71.2765 84.5551 70.9181 84.8598C70.5342 85.1861 70.1439 85.6377 69.7468 86.1778L71.3581 87.3626C71.7116 86.8818 71.9968 86.5678 72.2134 86.3836C72.4555 86.1779 72.4885 86.2389 72.3539 86.2389V84.2389ZM69.7437 86.182C68.9656 87.2519 68.2115 88.6437 67.474 90.3336L69.3071 91.1335C70.0109 89.5206 70.698 88.2701 71.3611 87.3583L69.7437 86.182ZM67.474 90.3336C66.7297 92.0394 66.1263 93.835 65.663 95.7192L67.6052 96.1967C68.0426 94.4178 68.6103 92.7304 69.3071 91.1335L67.474 90.3336ZM65.6604 95.7301C65.3343 97.1233 64.9869 97.8686 64.7133 98.1788L66.2129 99.502C66.8401 98.7913 67.2733 97.615 67.6078 96.1858L65.6604 95.7301ZM64.7105 98.1819C64.5538 98.361 64.2137 98.561 63.4364 98.561V100.561C64.5207 100.561 65.5318 100.281 66.2157 99.4989L64.7105 98.1819ZM89.3368 98.561C86.5869 98.561 84.5712 97.7949 83.1531 96.3768L81.7389 97.791C83.6236 99.6757 86.2017 100.561 89.3368 100.561V98.561ZM83.1658 96.3898C81.7545 94.9261 81.0139 92.9838 81.0139 90.4633H79.0139C79.0139 93.4074 79.8948 95.8788 81.7261 97.778L83.1658 96.3898ZM81.0139 90.4633C81.0139 88.1646 81.4672 86.1974 82.3407 84.5324L80.5696 83.6033C79.5214 85.6014 79.0139 87.8979 79.0139 90.4633H81.0139ZM82.3407 84.5324C83.2325 82.8325 84.3682 81.5593 85.7366 80.6739L84.6501 78.9947C82.9558 80.091 81.5995 81.6402 80.5696 83.6033L82.3407 84.5324ZM85.7366 80.6739C87.1203 79.7785 88.5401 79.3481 90.0124 79.3481V77.3481C88.1218 77.3481 86.3289 77.9084 84.6501 78.9947L85.7366 80.6739ZM90.0124 79.3481C91.4528 79.3481 92.4323 79.7718 93.1007 80.507L94.5806 79.1616C93.4474 77.9151 91.8747 77.3481 90.0124 77.3481V79.3481ZM93.1224 80.5301C93.846 81.2771 94.2368 82.2603 94.2368 83.5725H96.2368C96.2368 81.8221 95.6968 80.3131 94.5589 79.1385L93.1224 80.5301ZM94.2368 83.5725C94.2368 84.6804 93.9877 85.5459 93.5446 86.2221L95.2175 87.3182C95.9154 86.253 96.2368 84.9867 96.2368 83.5725H94.2368ZM93.5314 86.2428C93.1436 86.8676 92.7212 87.0763 92.2193 87.0763V89.0763C93.5188 89.0763 94.5376 88.4142 95.2307 87.2975L93.5314 86.2428ZM92.2193 87.0763C91.8068 87.0763 91.5688 86.9802 91.4231 86.8709L90.2231 88.4709C90.7979 88.9021 91.4907 89.0763 92.2193 89.0763V87.0763ZM91.4563 86.897C91.3892 86.8421 91.3277 86.768 91.3277 86.545H89.3277C89.3277 87.2828 89.5964 87.9593 90.1898 88.4449L91.4563 86.897ZM91.3277 86.545C91.3277 86.4265 91.345 86.2613 91.3939 86.0413L89.4415 85.6074C89.3703 85.9279 89.3277 86.2431 89.3277 86.545H91.3277ZM91.3939 86.0413C91.4538 85.7718 91.4964 85.5877 91.523 85.4814L89.5827 84.9963C89.5492 85.1302 89.5018 85.3364 89.4415 85.6074L91.3939 86.0413ZM91.5015 85.5551C91.6785 85.024 91.778 84.496 91.778 83.9778H89.778C89.778 84.2403 89.7274 84.553 89.6042 84.9226L91.5015 85.5551ZM91.778 83.9778C91.778 83.4085 91.6209 82.8209 91.1699 82.3699L89.7557 83.7842C89.7472 83.7757 89.7489 83.7717 89.7554 83.7902C89.7634 83.8132 89.778 83.8705 89.778 83.9778H91.778ZM91.222 82.4263C90.7982 81.9318 90.2102 81.7618 89.6521 81.7618V83.7618C89.7373 83.7618 89.7672 83.7744 89.7625 83.7726C89.7596 83.7715 89.7501 83.7673 89.7373 83.7584C89.7243 83.7493 89.7127 83.7386 89.7035 83.7278L91.222 82.4263ZM89.6521 81.7618C88.6203 81.7618 87.7283 82.2441 86.9913 83.0179L88.4396 84.3972C88.9036 83.91 89.3027 83.7618 89.6521 83.7618V81.7618ZM87.0083 83.0005C86.2722 83.7366 85.7234 84.708 85.3283 85.8604L87.2202 86.509C87.5457 85.5596 87.9577 84.8796 88.4225 84.4147L87.0083 83.0005ZM85.3283 85.8604C84.9277 87.0287 84.7338 88.2959 84.7338 89.6526H86.7338C86.7338 88.4872 86.9001 87.4424 87.2202 86.509L85.3283 85.8604ZM84.7338 89.6526C84.7338 91.5169 85.1366 93.1018 86.1168 94.2276C87.12 95.3798 88.5734 95.877 90.2826 95.877V93.877C88.9593 93.877 88.1382 93.5035 87.6252 92.9143C87.0891 92.2986 86.7338 91.2713 86.7338 89.6526H84.7338ZM90.2826 95.877C91.7359 95.877 93.2286 95.3987 94.7441 94.5281L93.7478 92.7939C92.4409 93.5447 91.2914 93.877 90.2826 93.877V95.877ZM94.7498 94.5248C96.3152 93.6116 97.8117 92.2801 99.2466 90.5644L97.7125 89.2813C96.3851 90.8684 95.0591 92.029 93.7421 92.7972L94.7498 94.5248ZM99.2388 90.5736C99.4566 90.3196 99.6029 90.2923 99.6956 90.2923V88.2923C98.8875 88.2923 98.2231 88.6854 97.7203 89.272L99.2388 90.5736ZM99.6956 90.2923C99.7159 90.2923 99.7224 90.2946 99.719 90.2937C99.715 90.2926 99.7072 90.2898 99.699 90.2849C99.6911 90.2802 99.6898 90.2777 99.6948 90.2829C99.7003 90.2887 99.7139 90.3046 99.7326 90.3366L101.46 89.3289C101.086 88.6871 100.47 88.2923 99.6956 88.2923V90.2923ZM99.7643 90.3875C99.8556 90.5245 99.9566 90.8004 99.9566 91.319H101.957C101.957 90.5765 101.817 89.8617 101.428 89.2781L99.7643 90.3875ZM99.9566 91.319C99.9566 92.2904 99.7164 92.986 99.3169 93.4907L100.885 94.7321C101.626 93.7956 101.957 92.6296 101.957 91.319H99.9566ZM99.324 93.4818C98.0034 95.1114 96.4226 96.3693 94.5753 97.265L95.4479 99.0646C97.564 98.0386 99.376 96.5943 100.878 94.741L99.324 93.4818ZM94.5811 97.2622C92.7399 98.1404 90.9949 98.561 89.3368 98.561V100.561C91.3419 100.561 93.3801 100.051 95.4421 99.0674L94.5811 97.2622ZM114.385 90.2923C114.406 90.2923 114.412 90.2946 114.409 90.2937C114.405 90.2926 114.397 90.2898 114.389 90.2849C114.381 90.2802 114.38 90.2777 114.385 90.2829C114.39 90.2887 114.404 90.3046 114.422 90.3366L116.15 89.3289C115.776 88.6871 115.16 88.2923 114.385 88.2923V90.2923ZM114.454 90.3875C114.545 90.5245 114.646 90.8004 114.646 91.319H116.646C116.646 90.5765 116.507 89.8617 116.118 89.2781L114.454 90.3875ZM114.646 91.319C114.646 92.3703 114.397 93.0371 114.034 93.4578L115.548 94.765C116.325 93.8645 116.646 92.6698 116.646 91.319H114.646ZM114.014 93.4813C112.779 95.0033 111.441 96.2385 110.002 97.1976L111.112 98.8617C112.736 97.7792 114.22 96.4021 115.567 94.7414L114.014 93.4813ZM109.995 97.2028C108.669 98.1041 107.156 98.561 105.423 98.561V100.561C107.533 100.561 109.442 99.997 111.119 98.8566L109.995 97.2028ZM105.423 98.561C104.258 98.561 103.292 98.2981 102.487 97.8068C101.681 97.3145 100.981 96.558 100.404 95.4845L98.642 96.4314C99.356 97.7599 100.284 98.805 101.445 99.5137C102.607 100.223 103.945 100.561 105.423 100.561V98.561ZM100.408 95.4931C99.2467 93.2807 98.6312 90.3482 98.6312 86.6351H96.6312C96.6312 90.5484 97.2768 93.8311 98.6374 96.4228L100.408 95.4931ZM98.6312 86.6351C98.6312 83.0536 99.0866 78.9473 100.008 74.3094L98.0466 73.9196C97.1066 78.6495 96.6312 82.8903 96.6312 86.6351H98.6312ZM100.007 74.3154C100.953 69.7054 102.32 65.78 104.094 62.5226L102.338 61.566C100.449 65.0342 99.0238 69.1556 98.0478 73.9135L100.007 74.3154ZM104.091 62.5286C105.874 59.3078 107.813 58 109.837 58V56C106.756 56 104.281 58.055 102.341 61.5599L104.091 62.5286ZM109.837 58C110.889 58 111.707 58.4574 112.357 59.5412L114.072 58.5122C113.101 56.8938 111.667 56 109.837 56V58ZM112.371 59.5636C113.066 60.6554 113.475 62.342 113.475 64.7466H115.475C115.475 62.1668 115.045 60.0402 114.058 58.4898L112.371 59.5636ZM113.475 64.7466C113.475 68.1422 112.532 72.1494 110.581 76.7895L112.425 77.5646C114.438 72.7767 115.475 68.497 115.475 64.7466H113.475ZM110.581 76.7895C108.633 81.4231 105.987 86.0241 102.635 90.5923L104.247 91.7755C107.681 87.0959 110.409 82.359 112.425 77.5646L110.581 76.7895ZM102.455 91.3522C102.677 92.6498 103.064 93.7569 103.73 94.5055L105.224 93.1768C104.929 92.8445 104.626 92.1801 104.427 91.0156L102.455 91.3522ZM103.749 94.5265C104.441 95.2617 105.347 95.6068 106.369 95.6068V93.6068C105.829 93.6068 105.474 93.4415 105.205 93.1558L103.749 94.5265ZM106.369 95.6068C107.8 95.6068 109.093 95.2007 110.207 94.374L109.015 92.7678C108.268 93.3223 107.399 93.6068 106.369 93.6068V95.6068ZM110.224 94.3616C111.24 93.5748 112.48 92.2934 113.934 90.567L112.404 89.2787C110.976 90.9752 109.844 92.1258 108.999 92.7802L110.224 94.3616ZM113.929 90.5736C114.146 90.3196 114.293 90.2923 114.385 90.2923V88.2923C113.577 88.2923 112.913 88.6854 112.41 89.272L113.929 90.5736ZM108.846 60.4588C108.358 60.4588 107.958 60.6807 107.665 60.9293C107.372 61.1769 107.119 61.5044 106.895 61.8624C106.445 62.5798 106.004 63.5968 105.56 64.8671L107.448 65.5268C107.875 64.305 108.258 63.4529 108.59 62.9242C108.756 62.6592 108.882 62.5194 108.957 62.4555C109.031 62.3926 108.989 62.4588 108.846 62.4588V60.4588ZM105.56 64.8671C104.666 67.4253 103.889 70.5732 103.222 74.2987L105.191 74.6508C105.846 70.9901 106.6 67.9528 107.448 65.5268L105.56 64.8671ZM103.222 74.2987C102.553 78.0387 102.187 81.6349 102.126 85.0861L104.126 85.1215C104.185 81.7869 104.539 78.2971 105.191 74.6508L103.222 74.2987ZM103.981 85.6226C106.144 82.058 107.871 78.4847 109.156 74.9027L107.274 74.227C106.038 77.671 104.371 81.1236 102.271 84.585L103.981 85.6226ZM109.157 74.9002C110.446 71.2793 111.107 67.9362 111.107 64.8817H109.107C109.107 67.6521 108.506 70.7644 107.273 74.2295L109.157 74.9002ZM111.107 64.8817C111.107 63.7074 111.002 62.7084 110.73 61.9688C110.591 61.5929 110.386 61.2187 110.068 60.9312C109.729 60.6243 109.307 60.4588 108.846 60.4588V62.4588C108.805 62.4588 108.75 62.4359 108.726 62.4142C108.724 62.4119 108.781 62.4656 108.853 62.6602C109.001 63.0615 109.107 63.774 109.107 64.8817H111.107ZM132.093 90.2923C132.113 90.2923 132.12 90.2946 132.117 90.2937C132.112 90.2926 132.105 90.2898 132.097 90.2849C132.089 90.2802 132.087 90.2777 132.092 90.2829C132.098 90.2887 132.111 90.3046 132.13 90.3366L133.858 89.3289C133.483 88.6871 132.868 88.2923 132.093 88.2923V90.2923ZM132.162 90.3875C132.253 90.5245 132.354 90.8005 132.354 91.319H134.354C134.354 90.5765 134.215 89.8617 133.826 89.2781L132.162 90.3875ZM132.354 91.319C132.354 91.6991 132.398 91.9987 132.467 92.2496C132.5 92.3732 132.537 92.4744 132.569 92.5544C132.584 92.5924 132.599 92.6268 132.608 92.6495C132.619 92.6758 132.623 92.6857 132.626 92.6921C132.631 92.7071 132.608 92.653 132.598 92.5665C132.587 92.4633 132.598 92.3607 132.626 92.2725C132.65 92.1981 132.677 92.1615 132.669 92.1738C132.661 92.1855 132.636 92.2197 132.578 92.2868L134.092 93.594C134.239 93.4242 134.435 93.1821 134.531 92.882C134.661 92.4763 134.559 92.1482 134.492 91.9727C134.424 91.798 134.421 91.8153 134.396 91.7227C134.379 91.6603 134.354 91.5394 134.354 91.319H132.354ZM132.563 92.3053C131.486 93.615 129.166 95.9235 127.282 96.9766L128.257 98.7225C130.456 97.4936 132.963 94.968 134.108 93.5755L132.563 92.3053ZM127.276 96.9797C125.415 98.0354 123.423 98.561 121.284 98.561V100.561C123.769 100.561 126.101 99.9456 128.263 98.7194L127.276 96.9797ZM121.284 98.561C118.314 98.561 116.148 97.7591 114.644 96.2806L113.242 97.7071C115.22 99.6514 117.949 100.561 121.284 100.561V98.561ZM114.644 96.2806C113.134 94.7967 112.331 92.7345 112.331 89.9679H110.331C110.331 93.1463 111.269 95.768 113.242 97.7071L114.644 96.2806ZM112.331 89.9679C112.331 88.0413 112.734 86.2715 113.534 84.6441L111.739 83.7619C110.798 85.6775 110.331 87.751 110.331 89.9679H112.331ZM113.537 84.6382C114.338 82.9808 115.429 81.6937 116.806 80.7489L115.674 79.0999C113.988 80.2568 112.677 81.8221 111.736 83.7678L113.537 84.6382ZM116.798 80.754C118.188 79.8184 119.749 79.3481 121.509 79.3481V77.3481C119.366 77.3481 117.414 77.9286 115.681 79.0948L116.798 80.754ZM121.509 79.3481C123.035 79.3481 124.159 79.8002 124.991 80.6315L126.405 79.2173C125.134 77.9468 123.467 77.3481 121.509 77.3481V79.3481ZM125.001 80.6417C125.818 81.4358 126.274 82.551 126.274 84.1129H128.274C128.274 82.1318 127.679 80.4547 126.394 79.2071L125.001 80.6417ZM126.274 84.1129C126.274 85.9122 125.634 87.4464 124.315 88.7654L125.729 90.1796C127.413 88.496 128.274 86.4572 128.274 84.1129H126.274ZM124.315 88.7654C123.037 90.0431 120.744 91.1586 117.262 92.0143L117.739 93.9565C121.343 93.0708 124.064 91.8443 125.729 90.1796L124.315 88.7654ZM116.622 93.4629C117.606 95.2742 119.453 96.0572 121.779 96.0572V94.0572C119.902 94.0572 118.896 93.459 118.379 92.5079L116.622 93.4629ZM121.779 96.0572C123.355 96.0572 125.054 95.5171 126.851 94.5395L125.895 92.7825C124.27 93.6665 122.906 94.0572 121.779 94.0572V96.0572ZM126.856 94.5366C128.776 93.4772 130.224 91.8685 131.493 90.3269L129.949 89.0555C128.697 90.5765 127.453 91.9232 125.89 92.7854L126.856 94.5366ZM131.48 90.342C131.481 90.341 131.48 90.3416 131.484 90.3396C131.491 90.3359 131.514 90.3255 131.565 90.3156C131.617 90.3055 131.685 90.2983 131.777 90.2948C131.874 90.2912 131.965 90.2923 132.093 90.2923V88.2923C131.907 88.2923 131.54 88.2826 131.182 88.3527C130.793 88.4285 130.331 88.6096 129.962 89.0404L131.48 90.342ZM120.743 81.7618C119.162 81.7618 117.939 82.7106 117.05 84.181L118.762 85.2158C119.434 84.1041 120.103 83.7618 120.743 83.7618V81.7618ZM117.042 84.1958C116.184 85.6706 115.78 87.414 115.78 89.3824H117.78C117.78 87.6876 118.127 86.3084 118.771 85.201L117.042 84.1958ZM115.78 89.3824V89.4725H117.78V89.3824H115.78ZM117.011 90.4454C118.878 90.0024 120.43 89.32 121.604 88.3528L120.333 86.8089C119.466 87.5232 118.225 88.1018 116.549 88.4995L117.011 90.4454ZM121.604 88.3528C122.807 87.3622 123.5 86.1209 123.5 84.6534H121.5C121.5 85.4077 121.172 86.1181 120.333 86.8089L121.604 88.3528ZM123.5 84.6534C123.5 83.8802 123.269 83.1529 122.712 82.5951L121.297 84.0093C121.4 84.1121 121.5 84.2856 121.5 84.6534H123.5ZM122.773 82.6621C122.252 82.0376 121.53 81.7618 120.743 81.7618V83.7618C121.038 83.7618 121.156 83.8463 121.236 83.9424L122.773 82.6621ZM138.064 99.5518C136.645 99.5518 135.709 99.2237 135.112 98.7117L133.81 100.23C134.894 101.159 136.361 101.552 138.064 101.552V99.5518ZM135.125 98.7235C134.481 98.1504 134.245 97.596 134.245 97.0389H132.245C132.245 98.2832 132.82 99.3502 133.797 100.218L135.125 98.7235ZM134.245 97.0389C134.245 96.5332 134.418 96.1092 134.808 95.7192L133.394 94.305C132.643 95.056 132.245 95.9832 132.245 97.0389H134.245ZM134.808 95.7192C135.129 95.3979 135.675 95.1564 136.623 95.1564V93.1564C135.349 93.1564 134.213 93.4854 133.394 94.305L134.808 95.7192ZM136.623 95.1564C136.94 95.1564 137.33 95.1933 137.8 95.2763L138.148 93.3068C137.597 93.2096 137.087 93.1564 136.623 93.1564V95.1564ZM137.864 95.2854C138.404 95.3455 138.809 95.3905 139.08 95.4205L139.301 93.4328C139.03 93.4027 138.625 93.3577 138.084 93.2976L137.864 95.2854ZM140.189 94.3882C140.154 93.4742 139.942 92.6045 139.552 91.7883L137.748 92.6512C138.018 93.2162 138.166 93.8178 138.191 94.4651L140.189 94.3882ZM139.567 91.8211C139.233 91.0529 138.801 90.3232 138.274 89.6321L136.683 90.8442C137.117 91.4141 137.466 92.0054 137.733 92.6185L139.567 91.8211ZM138.287 89.6499C137.794 88.9714 137.325 88.3764 136.88 87.8682L135.375 89.1852C135.771 89.6378 136.203 90.1837 136.67 90.8263L138.287 89.6499ZM135.242 88.0615C134.332 89.7949 133.434 91.2094 132.552 92.3181L134.118 93.5626C135.098 92.3294 136.062 90.8015 137.013 88.9918L135.242 88.0615ZM132.543 92.3307C132.166 92.82 131.66 93.2728 131.062 93.7656C130.493 94.2343 129.808 94.7637 129.228 95.3273L130.622 96.7613C131.124 96.2739 131.693 95.8369 132.334 95.3092C132.945 94.8054 133.603 94.2317 134.128 93.5501L132.543 92.3307ZM129.218 95.3372C128.745 95.8098 128.332 96.0763 128.057 96.2798L129.246 97.888C129.44 97.7445 130.024 97.3597 130.632 96.7514L129.218 95.3372ZM128.651 96.0839C128.428 96.0839 128.315 96.0204 128.22 95.9158L126.74 97.2611C127.246 97.8171 127.913 98.0839 128.651 98.0839V96.0839ZM128.248 95.9483C128.112 95.784 128.03 95.581 128.03 95.2824H126.03C126.03 96.0046 126.248 96.6723 126.712 97.2287L128.248 95.9483ZM128.03 95.2824C128.03 94.9377 128.143 94.6024 128.432 94.2517L126.888 92.9803C126.337 93.6504 126.03 94.4261 126.03 95.2824H128.03ZM128.436 94.2466L129.022 93.5259L127.47 92.2648L126.884 92.9854L128.436 94.2466ZM129.023 93.5242C130.685 91.4699 131.958 89.7551 132.828 88.388L131.14 87.3142C130.329 88.5893 129.11 90.2374 127.468 92.2665L129.023 93.5242ZM132.834 88.3785C133.403 87.4613 133.964 86.3845 134.517 85.1538L132.693 84.3331C132.166 85.5045 131.646 86.4994 131.134 87.3237L132.834 88.3785ZM134.509 85.1725C135.086 83.9569 135.827 82.309 136.729 80.233L134.895 79.4356C133.996 81.5031 133.266 83.1279 132.702 84.3144L134.509 85.1725ZM136.73 80.2307C136.934 79.7595 137.228 79.4381 137.616 79.2217C138.02 78.997 138.586 78.8526 139.37 78.8526V76.8526C138.353 76.8526 137.426 77.0385 136.643 77.4744C135.846 77.9186 135.261 78.588 134.894 79.4379L136.73 80.2307ZM139.37 78.8526C140.208 78.8526 140.598 78.9359 140.713 78.9882L141.541 77.1675C140.995 76.9195 140.214 76.8526 139.37 76.8526V78.8526ZM140.713 78.9882C140.753 79.0063 140.717 78.9994 140.674 78.9371C140.654 78.9073 140.639 78.8752 140.631 78.8457C140.622 78.8171 140.622 78.7995 140.622 78.7984H142.622C142.622 78.4589 142.534 78.1124 142.322 77.804C142.114 77.5016 141.831 77.2995 141.541 77.1675L140.713 78.9882ZM140.622 78.7984C140.622 78.7902 140.622 78.8306 140.599 78.9415C140.577 79.0453 140.541 79.1834 140.486 79.3601L142.398 79.9482C142.52 79.5522 142.622 79.1415 142.622 78.7984H140.622ZM140.486 79.3601C140.387 79.683 140.248 80.0133 140.066 80.351L141.827 81.2992C142.066 80.8563 142.257 80.4059 142.398 79.9482L140.486 79.3601ZM140.052 80.3779C139.48 81.5223 139.136 82.5999 139.136 83.5725H141.136C141.136 83.0437 141.332 82.2898 141.841 81.2724L140.052 80.3779ZM139.136 83.5725C139.136 84.2444 139.359 84.9082 139.712 85.5444L141.46 84.5731C141.213 84.1284 141.136 83.8013 141.136 83.5725H139.136ZM139.733 85.5802C140.097 86.1757 140.624 86.8908 141.297 87.7171L142.848 86.4538C142.2 85.6587 141.736 85.0226 141.44 84.5373L139.733 85.5802ZM141.277 87.6915C142.221 88.9304 142.907 89.9638 143.352 90.7988L145.117 89.8576C144.601 88.891 143.846 87.7626 142.868 86.4794L141.277 87.6915ZM143.372 90.8339C143.788 91.5448 144 92.3299 144 93.2106H146C146 91.9896 145.701 90.853 145.097 89.8225L143.372 90.8339ZM144 93.2106C144 94.3057 143.741 95.3472 143.214 96.3479L144.984 97.2794C145.658 95.9982 146 94.6377 146 93.2106H144ZM143.21 96.3569C142.719 97.3131 142.026 98.0838 141.118 98.6802L142.216 100.352C143.41 99.567 144.339 98.5361 144.989 97.2705L143.21 96.3569ZM141.118 98.6802C140.242 99.2556 139.235 99.5518 138.064 99.5518V101.552C139.595 101.552 140.99 101.157 142.216 100.352L141.118 98.6802Z" fill="#0476C2" mask="url(#path-2-outside-1_338_45391)"/>
<defs>
<linearGradient id="paint0_linear_338_45391" x1="24.5" y1="11.5" x2="82" y2="164" gradientUnits="userSpaceOnUse">
<stop stop-color="white" stop-opacity="0.15"/>
<stop offset="1" stop-opacity="0.09"/>
</linearGradient>
<linearGradient id="paint1_linear_338_45391" x1="37" y1="64.5549" x2="46.137" y2="110.602" gradientUnits="userSpaceOnUse">
<stop stop-color="white"/>
<stop offset="1" stop-color="white"/>
</linearGradient>
<linearGradient id="paint2_linear_338_45391" x1="37" y1="64.5549" x2="46.137" y2="110.602" gradientUnits="userSpaceOnUse">
<stop stop-color="white"/>
<stop offset="1" stop-color="white"/>
</linearGradient>
<linearGradient id="paint3_linear_338_45391" x1="37" y1="64.5549" x2="46.137" y2="110.602" gradientUnits="userSpaceOnUse">
<stop stop-color="white"/>
<stop offset="1" stop-color="white"/>
</linearGradient>
<linearGradient id="paint4_linear_338_45391" x1="37" y1="64.5549" x2="46.137" y2="110.602" gradientUnits="userSpaceOnUse">
<stop stop-color="white"/>
<stop offset="1" stop-color="white"/>
</linearGradient>
<linearGradient id="paint5_linear_338_45391" x1="37" y1="64.5549" x2="46.137" y2="110.602" gradientUnits="userSpaceOnUse">
<stop stop-color="white"/>
<stop offset="1" stop-color="white"/>
</linearGradient>
<linearGradient id="paint6_linear_338_45391" x1="37" y1="64.5549" x2="46.137" y2="110.602" gradientUnits="userSpaceOnUse">
<stop stop-color="white"/>
<stop offset="1" stop-color="white"/>
</linearGradient>
<linearGradient id="paint7_linear_338_45391" x1="37" y1="64.5549" x2="46.137" y2="110.602" gradientUnits="userSpaceOnUse">
<stop stop-color="white"/>
<stop offset="1" stop-color="white"/>
</linearGradient>
</defs>
</svg>
