<svg width="215" height="79" viewBox="0 0 215 79" fill="none" xmlns="http://www.w3.org/2000/svg">
<mask id="path-1-outside-1_338_44957" maskUnits="userSpaceOnUse" x="0" y="-0.000488281" width="215" height="79" fill="black">
<rect fill="white" y="-0.000488281" width="215" height="79"/>
<path d="M32.0606 73.7936C26.134 73.7936 20.9792 72.7198 16.5965 70.5723C12.2137 68.3748 8.85197 65.2784 6.51118 61.2829C4.17039 57.2875 3 52.6428 3 47.3488C3 40.0072 4.36961 33.4897 7.10883 27.7962C9.89786 22.1027 13.6581 17.7077 18.3894 14.6112C23.1208 11.4648 28.3751 9.89164 34.1524 9.89164C39.5312 9.89164 43.6152 11.29 46.4042 14.0868C49.1932 16.8337 50.5877 20.4795 50.5877 25.0243C50.5877 28.0709 50.0399 30.5181 48.9442 32.366C47.8983 34.2138 46.3793 35.1378 44.3871 35.1378C42.9926 35.1378 41.8969 34.8132 41.1001 34.1639C40.3032 33.5146 39.9048 32.5657 39.9048 31.3172C39.9048 30.8677 40.0044 30.0436 40.2036 28.845C40.5024 27.3467 40.6518 26.1481 40.6518 25.2491C40.6518 20.7043 38.2363 18.4319 33.4053 18.4319C30.1183 18.4319 26.9806 19.5057 23.9924 21.6532C21.0042 23.8007 18.5887 26.9721 16.7459 31.1673C14.9032 35.3126 13.9818 40.2569 13.9818 46.0004C13.9818 51.9935 15.6502 56.6382 18.9871 59.9345C22.324 63.1808 27.2546 64.8039 33.7789 64.8039C37.0161 64.8039 40.2783 64.4044 43.5654 63.6053C46.9022 62.7562 50.5877 61.4827 54.6219 59.7846C55.3689 59.485 55.9915 59.3351 56.4895 59.3351C57.2864 59.3351 57.884 59.6348 58.2825 60.2341C58.6809 60.8334 58.8801 61.6076 58.8801 62.5565C58.8801 65.603 57.2366 67.8504 53.9495 69.2988C50.4134 70.847 46.7279 71.9957 42.893 72.7448C39.1079 73.444 35.4971 73.7936 32.0606 73.7936Z"/>
<path d="M62.8057 33.5646C60.7139 33.5646 59.1451 33.0901 58.0992 32.1412C57.0533 31.1424 56.5304 29.7689 56.5304 28.0209C56.5304 26.2729 57.2027 24.8246 58.5474 23.6759C59.9419 22.4773 61.6602 21.8779 63.7021 21.8779C65.5449 21.8779 67.039 22.3274 68.1845 23.2264C69.33 24.1254 69.9027 25.3989 69.9027 27.047C69.9027 29.0448 69.2553 30.6429 67.9604 31.8416C66.6655 32.9902 64.9472 33.5646 62.8057 33.5646ZM62.208 73.7936C58.9708 73.7936 56.6051 72.6449 55.1109 70.3476C53.6666 68.0502 52.9445 65.0037 52.9445 61.208C52.9445 58.9606 53.2184 56.0889 53.7662 52.5928C54.3639 49.0469 55.111 45.7507 56.0074 42.7041C56.4557 41.106 57.0533 40.0072 57.8004 39.4079C58.5474 38.8086 59.7427 38.5089 61.3863 38.5089C63.9263 38.5089 65.1963 39.358 65.1963 41.056C65.1963 42.3046 64.7231 45.2013 63.7768 49.7461C62.5816 55.2398 61.9839 58.9606 61.9839 60.9083C61.9839 62.4066 62.1831 63.5553 62.5816 64.3544C62.98 65.1535 63.6523 65.553 64.5986 65.553C65.4951 65.553 66.6157 64.9288 67.9604 63.6802C69.3051 62.4316 71.098 60.4589 73.3392 57.7619C73.9369 57.0627 74.6092 56.7131 75.3563 56.7131C76.0037 56.7131 76.5018 57.0128 76.8504 57.6121C77.2488 58.2114 77.4481 59.0355 77.4481 60.0843C77.4481 62.082 76.9749 63.6302 76.0286 64.729C71.098 70.7721 66.4912 73.7936 62.208 73.7936Z"/>
<path d="M76.708 73.7936C74.8154 73.7936 73.4707 72.7948 72.6739 70.7971C71.9268 68.7993 71.5533 65.603 71.5533 61.208C71.5533 54.7154 72.4747 48.5475 74.3174 42.7041C74.7656 41.2558 75.4878 40.207 76.4839 39.5577C77.5298 38.8585 78.9741 38.5089 80.8168 38.5089C81.8129 38.5089 82.5102 38.6338 82.9086 38.8835C83.307 39.1332 83.5062 39.6077 83.5062 40.3069C83.5062 41.106 83.1327 42.9039 82.3857 45.7007C81.8876 47.6984 81.4892 49.4464 81.1904 50.9447C80.8915 52.443 80.6425 54.2909 80.4433 56.4884C82.0868 52.1933 83.9296 48.6973 85.9715 46.0004C88.0135 43.3035 90.0057 41.3807 91.948 40.232C93.9402 39.0833 95.758 38.5089 97.4016 38.5089C100.639 38.5089 102.257 40.1321 102.257 43.3784C102.257 44.0276 102.033 45.6008 101.585 48.098C101.187 50.0957 100.987 51.3443 100.987 51.8437C100.987 53.5917 101.61 54.4657 102.855 54.4657C104.25 54.4657 106.043 53.367 108.234 51.1695C108.881 50.5202 109.554 50.1956 110.251 50.1956C110.898 50.1956 111.396 50.4952 111.745 51.0946C112.144 51.6439 112.343 52.3931 112.343 53.342C112.343 55.1899 111.845 56.6382 110.849 57.687C109.454 59.1354 107.811 60.3839 105.918 61.4328C104.075 62.4316 102.108 62.931 100.016 62.931C97.3767 62.931 95.3596 62.2568 93.9651 60.9083C92.6204 59.5599 91.948 57.737 91.948 55.4396C91.948 54.6905 92.0227 53.9413 92.1721 53.1922C92.2717 52.1933 92.3215 51.5191 92.3215 51.1695C92.3215 50.3704 92.0476 49.9708 91.4998 49.9708C90.7527 49.9708 89.7566 50.8199 88.5115 52.5179C87.3162 54.1661 86.1209 56.3635 84.9257 59.1104C83.7304 61.8573 82.7592 64.754 82.0121 67.8005C81.4643 70.1478 80.8168 71.746 80.0698 72.595C79.3725 73.3941 78.2519 73.7936 76.708 73.7936Z"/>
<path d="M119.67 73.7936C114.789 73.7936 110.979 72.4202 108.24 69.6733C105.55 66.8765 104.206 63.2057 104.206 58.6609C104.206 54.6155 105.003 51.0696 106.596 48.0231C108.19 44.9766 110.257 42.6292 112.797 40.9811C115.337 39.333 118.001 38.5089 120.79 38.5089C123.53 38.5089 125.646 39.333 127.14 40.9811C128.684 42.5793 129.456 44.6519 129.456 47.199C129.456 49.2966 128.983 51.0696 128.037 52.5179C127.14 53.9663 125.945 54.6905 124.451 54.6905C123.505 54.6905 122.733 54.4657 122.135 54.0162C121.587 53.5667 121.313 52.9425 121.313 52.1434C121.313 51.7938 121.363 51.3942 121.463 50.9447C121.562 50.4952 121.637 50.1706 121.687 49.9708C121.936 49.2217 122.06 48.5225 122.06 47.8732C122.06 47.224 121.886 46.7246 121.537 46.375C121.239 46.0254 120.79 45.8506 120.193 45.8506C119.047 45.8506 117.976 46.375 116.98 47.4238C115.984 48.4226 115.187 49.796 114.59 51.544C113.992 53.292 113.693 55.2149 113.693 57.3125C113.693 63.1058 116.208 66.0025 121.239 66.0025C123.281 66.0025 125.472 65.3283 127.813 63.9798C130.203 62.5814 132.544 60.5088 134.835 57.7619C135.433 57.0627 136.105 56.7131 136.852 56.7131C137.5 56.7131 137.998 57.0128 138.346 57.6121C138.745 58.2114 138.944 59.0355 138.944 60.0843C138.944 61.9821 138.471 63.5303 137.525 64.729C135.184 67.6257 132.37 69.8731 129.083 71.4713C125.845 73.0195 122.708 73.7936 119.67 73.7936Z"/>
<path d="M161.219 56.7131C161.866 56.7131 162.364 57.0128 162.713 57.6121C163.111 58.2114 163.31 59.0355 163.31 60.0843C163.31 62.082 162.837 63.6302 161.891 64.729C159.749 67.376 157.409 69.5485 154.869 71.2465C152.378 72.9446 149.54 73.7936 146.352 73.7936C141.969 73.7936 138.707 71.7959 136.566 67.8005C134.474 63.805 133.428 58.6359 133.428 52.2932C133.428 46.2002 134.2 39.2581 135.744 31.467C137.338 23.6759 139.653 16.9835 142.691 11.3899C145.779 5.79632 149.44 2.99951 153.673 2.99951C156.064 2.99951 157.932 4.12323 159.276 6.37066C160.671 8.56815 161.368 11.7395 161.368 15.8848C161.368 21.828 159.724 28.7201 156.437 36.5612C153.15 44.4022 148.693 52.1683 143.065 59.8595C143.414 61.9072 143.986 63.3805 144.783 64.2795C145.58 65.1285 146.626 65.553 147.921 65.553C149.963 65.553 151.756 64.9787 153.3 63.83C154.844 62.6314 156.811 60.6087 159.202 57.7619C159.799 57.0627 160.472 56.7131 161.219 56.7131ZM152.03 10.416C150.884 10.416 149.589 12.4887 148.145 16.6339C146.701 20.7792 145.431 25.9233 144.335 32.0663C143.239 38.2093 142.642 44.1026 142.542 49.7461C146.078 43.9028 148.892 38.0595 150.984 32.2161C153.076 26.3229 154.122 20.954 154.122 16.1095C154.122 12.3139 153.424 10.416 152.03 10.416Z"/>
<path d="M190.591 56.7131C191.238 56.7131 191.736 57.0128 192.085 57.6121C192.483 58.2114 192.683 59.0355 192.683 60.0843C192.683 62.082 192.21 63.6302 191.263 64.729C189.421 66.9764 186.806 69.049 183.419 70.9469C180.082 72.8447 176.496 73.7936 172.661 73.7936C167.432 73.7936 163.373 72.3702 160.484 69.5235C157.596 66.6768 156.151 62.7812 156.151 57.8369C156.151 54.3908 156.874 51.1944 158.318 48.2478C159.762 45.2512 161.754 42.8789 164.294 41.1309C166.884 39.3829 169.798 38.5089 173.035 38.5089C175.924 38.5089 178.24 39.3829 179.983 41.1309C181.726 42.829 182.597 45.1514 182.597 48.098C182.597 51.544 181.352 54.5157 178.862 57.0128C176.422 59.46 172.263 61.4078 166.386 62.8561C167.631 65.1535 169.997 66.3022 173.483 66.3022C175.724 66.3022 178.264 65.5281 181.103 63.9798C183.992 62.3817 186.482 60.309 188.574 57.7619C189.171 57.0627 189.844 56.7131 190.591 56.7131ZM171.765 45.8506C169.922 45.8506 168.353 46.9243 167.059 49.0719C165.813 51.2194 165.191 53.8164 165.191 56.863V57.0128C168.129 56.3136 170.445 55.2648 172.139 53.8664C173.832 52.468 174.679 50.8448 174.679 48.997C174.679 48.048 174.405 47.2989 173.857 46.7495C173.359 46.1502 172.661 45.8506 171.765 45.8506Z"/>
<path d="M200.495 75.4417C197.905 75.4417 195.913 74.8424 194.519 73.6438C193.174 72.4452 192.502 71.0967 192.502 69.5984C192.502 68.2999 192.975 67.1762 193.921 66.2273C194.867 65.2784 196.262 64.8039 198.105 64.8039C198.752 64.8039 199.499 64.8788 200.346 65.0286C201.242 65.1285 201.915 65.2034 202.363 65.2534C202.313 63.9549 202.014 62.7313 201.466 61.5826C200.968 60.4339 200.321 59.3351 199.524 58.2863C198.727 57.1876 197.98 56.2387 197.283 55.4396C195.739 58.3862 194.195 60.8334 192.651 62.7812C191.157 64.729 189.513 66.5769 187.721 68.3249C186.824 69.2238 185.878 69.6733 184.882 69.6733C184.085 69.6733 183.437 69.3986 182.939 68.8493C182.441 68.25 182.192 67.5258 182.192 66.6768C182.192 65.6779 182.541 64.754 183.238 63.9049L184.209 62.7063C186.949 59.3102 189.015 56.5134 190.41 54.3159C191.306 52.8675 192.203 51.1445 193.099 49.1468C194.046 47.1491 195.266 44.4272 196.76 40.9811C197.706 38.7836 199.674 37.6849 202.662 37.6849C204.056 37.6849 205.027 37.8097 205.575 38.0595C206.123 38.3092 206.397 38.7087 206.397 39.2581C206.397 39.5577 206.297 40.0322 206.098 40.6815C205.899 41.3307 205.625 41.98 205.276 42.6292C204.38 44.4272 203.932 45.9504 203.932 47.199C203.932 47.9482 204.181 48.7722 204.679 49.6712C205.227 50.5702 206.048 51.6939 207.144 53.0423C208.738 55.1399 209.933 56.9379 210.73 58.4362C211.577 59.8845 212 61.4827 212 63.2307C212 65.3283 211.502 67.326 210.506 69.2238C209.56 71.0717 208.215 72.57 206.472 73.7187C204.729 74.8674 202.736 75.4417 200.495 75.4417Z"/>
</mask>
<path d="M32.0606 73.7936C26.134 73.7936 20.9792 72.7198 16.5965 70.5723C12.2137 68.3748 8.85197 65.2784 6.51118 61.2829C4.17039 57.2875 3 52.6428 3 47.3488C3 40.0072 4.36961 33.4897 7.10883 27.7962C9.89786 22.1027 13.6581 17.7077 18.3894 14.6112C23.1208 11.4648 28.3751 9.89164 34.1524 9.89164C39.5312 9.89164 43.6152 11.29 46.4042 14.0868C49.1932 16.8337 50.5877 20.4795 50.5877 25.0243C50.5877 28.0709 50.0399 30.5181 48.9442 32.366C47.8983 34.2138 46.3793 35.1378 44.3871 35.1378C42.9926 35.1378 41.8969 34.8132 41.1001 34.1639C40.3032 33.5146 39.9048 32.5657 39.9048 31.3172C39.9048 30.8677 40.0044 30.0436 40.2036 28.845C40.5024 27.3467 40.6518 26.1481 40.6518 25.2491C40.6518 20.7043 38.2363 18.4319 33.4053 18.4319C30.1183 18.4319 26.9806 19.5057 23.9924 21.6532C21.0042 23.8007 18.5887 26.9721 16.7459 31.1673C14.9032 35.3126 13.9818 40.2569 13.9818 46.0004C13.9818 51.9935 15.6502 56.6382 18.9871 59.9345C22.324 63.1808 27.2546 64.8039 33.7789 64.8039C37.0161 64.8039 40.2783 64.4044 43.5654 63.6053C46.9022 62.7562 50.5877 61.4827 54.6219 59.7846C55.3689 59.485 55.9915 59.3351 56.4895 59.3351C57.2864 59.3351 57.884 59.6348 58.2825 60.2341C58.6809 60.8334 58.8801 61.6076 58.8801 62.5565C58.8801 65.603 57.2366 67.8504 53.9495 69.2988C50.4134 70.847 46.7279 71.9957 42.893 72.7448C39.1079 73.444 35.4971 73.7936 32.0606 73.7936Z" fill="white"/>
<path d="M62.8057 33.5646C60.7139 33.5646 59.1451 33.0901 58.0992 32.1412C57.0533 31.1424 56.5304 29.7689 56.5304 28.0209C56.5304 26.2729 57.2027 24.8246 58.5474 23.6759C59.9419 22.4773 61.6602 21.8779 63.7021 21.8779C65.5449 21.8779 67.039 22.3274 68.1845 23.2264C69.33 24.1254 69.9027 25.3989 69.9027 27.047C69.9027 29.0448 69.2553 30.6429 67.9604 31.8416C66.6655 32.9902 64.9472 33.5646 62.8057 33.5646ZM62.208 73.7936C58.9708 73.7936 56.6051 72.6449 55.1109 70.3476C53.6666 68.0502 52.9445 65.0037 52.9445 61.208C52.9445 58.9606 53.2184 56.0889 53.7662 52.5928C54.3639 49.0469 55.111 45.7507 56.0074 42.7041C56.4557 41.106 57.0533 40.0072 57.8004 39.4079C58.5474 38.8086 59.7427 38.5089 61.3863 38.5089C63.9263 38.5089 65.1963 39.358 65.1963 41.056C65.1963 42.3046 64.7231 45.2013 63.7768 49.7461C62.5816 55.2398 61.9839 58.9606 61.9839 60.9083C61.9839 62.4066 62.1831 63.5553 62.5816 64.3544C62.98 65.1535 63.6523 65.553 64.5986 65.553C65.4951 65.553 66.6157 64.9288 67.9604 63.6802C69.3051 62.4316 71.098 60.4589 73.3392 57.7619C73.9369 57.0627 74.6092 56.7131 75.3563 56.7131C76.0037 56.7131 76.5018 57.0128 76.8504 57.6121C77.2488 58.2114 77.4481 59.0355 77.4481 60.0843C77.4481 62.082 76.9749 63.6302 76.0286 64.729C71.098 70.7721 66.4912 73.7936 62.208 73.7936Z" fill="white"/>
<path d="M76.708 73.7936C74.8154 73.7936 73.4707 72.7948 72.6739 70.7971C71.9268 68.7993 71.5533 65.603 71.5533 61.208C71.5533 54.7154 72.4747 48.5475 74.3174 42.7041C74.7656 41.2558 75.4878 40.207 76.4839 39.5577C77.5298 38.8585 78.9741 38.5089 80.8168 38.5089C81.8129 38.5089 82.5102 38.6338 82.9086 38.8835C83.307 39.1332 83.5062 39.6077 83.5062 40.3069C83.5062 41.106 83.1327 42.9039 82.3857 45.7007C81.8876 47.6984 81.4892 49.4464 81.1904 50.9447C80.8915 52.443 80.6425 54.2909 80.4433 56.4884C82.0868 52.1933 83.9296 48.6973 85.9715 46.0004C88.0135 43.3035 90.0057 41.3807 91.948 40.232C93.9402 39.0833 95.758 38.5089 97.4016 38.5089C100.639 38.5089 102.257 40.1321 102.257 43.3784C102.257 44.0276 102.033 45.6008 101.585 48.098C101.187 50.0957 100.987 51.3443 100.987 51.8437C100.987 53.5917 101.61 54.4657 102.855 54.4657C104.25 54.4657 106.043 53.367 108.234 51.1695C108.881 50.5202 109.554 50.1956 110.251 50.1956C110.898 50.1956 111.396 50.4952 111.745 51.0946C112.144 51.6439 112.343 52.3931 112.343 53.342C112.343 55.1899 111.845 56.6382 110.849 57.687C109.454 59.1354 107.811 60.3839 105.918 61.4328C104.075 62.4316 102.108 62.931 100.016 62.931C97.3767 62.931 95.3596 62.2568 93.9651 60.9083C92.6204 59.5599 91.948 57.737 91.948 55.4396C91.948 54.6905 92.0227 53.9413 92.1721 53.1922C92.2717 52.1933 92.3215 51.5191 92.3215 51.1695C92.3215 50.3704 92.0476 49.9708 91.4998 49.9708C90.7527 49.9708 89.7566 50.8199 88.5115 52.5179C87.3162 54.1661 86.1209 56.3635 84.9257 59.1104C83.7304 61.8573 82.7592 64.754 82.0121 67.8005C81.4643 70.1478 80.8168 71.746 80.0698 72.595C79.3725 73.3941 78.2519 73.7936 76.708 73.7936Z" fill="white"/>
<path d="M119.67 73.7936C114.789 73.7936 110.979 72.4202 108.24 69.6733C105.55 66.8765 104.206 63.2057 104.206 58.6609C104.206 54.6155 105.003 51.0696 106.596 48.0231C108.19 44.9766 110.257 42.6292 112.797 40.9811C115.337 39.333 118.001 38.5089 120.79 38.5089C123.53 38.5089 125.646 39.333 127.14 40.9811C128.684 42.5793 129.456 44.6519 129.456 47.199C129.456 49.2966 128.983 51.0696 128.037 52.5179C127.14 53.9663 125.945 54.6905 124.451 54.6905C123.505 54.6905 122.733 54.4657 122.135 54.0162C121.587 53.5667 121.313 52.9425 121.313 52.1434C121.313 51.7938 121.363 51.3942 121.463 50.9447C121.562 50.4952 121.637 50.1706 121.687 49.9708C121.936 49.2217 122.06 48.5225 122.06 47.8732C122.06 47.224 121.886 46.7246 121.537 46.375C121.239 46.0254 120.79 45.8506 120.193 45.8506C119.047 45.8506 117.976 46.375 116.98 47.4238C115.984 48.4226 115.187 49.796 114.59 51.544C113.992 53.292 113.693 55.2149 113.693 57.3125C113.693 63.1058 116.208 66.0025 121.239 66.0025C123.281 66.0025 125.472 65.3283 127.813 63.9798C130.203 62.5814 132.544 60.5088 134.835 57.7619C135.433 57.0627 136.105 56.7131 136.852 56.7131C137.5 56.7131 137.998 57.0128 138.346 57.6121C138.745 58.2114 138.944 59.0355 138.944 60.0843C138.944 61.9821 138.471 63.5303 137.525 64.729C135.184 67.6257 132.37 69.8731 129.083 71.4713C125.845 73.0195 122.708 73.7936 119.67 73.7936Z" fill="white"/>
<path d="M161.219 56.7131C161.866 56.7131 162.364 57.0128 162.713 57.6121C163.111 58.2114 163.31 59.0355 163.31 60.0843C163.31 62.082 162.837 63.6302 161.891 64.729C159.749 67.376 157.409 69.5485 154.869 71.2465C152.378 72.9446 149.54 73.7936 146.352 73.7936C141.969 73.7936 138.707 71.7959 136.566 67.8005C134.474 63.805 133.428 58.6359 133.428 52.2932C133.428 46.2002 134.2 39.2581 135.744 31.467C137.338 23.6759 139.653 16.9835 142.691 11.3899C145.779 5.79632 149.44 2.99951 153.673 2.99951C156.064 2.99951 157.932 4.12323 159.276 6.37066C160.671 8.56815 161.368 11.7395 161.368 15.8848C161.368 21.828 159.724 28.7201 156.437 36.5612C153.15 44.4022 148.693 52.1683 143.065 59.8595C143.414 61.9072 143.986 63.3805 144.783 64.2795C145.58 65.1285 146.626 65.553 147.921 65.553C149.963 65.553 151.756 64.9787 153.3 63.83C154.844 62.6314 156.811 60.6087 159.202 57.7619C159.799 57.0627 160.472 56.7131 161.219 56.7131ZM152.03 10.416C150.884 10.416 149.589 12.4887 148.145 16.6339C146.701 20.7792 145.431 25.9233 144.335 32.0663C143.239 38.2093 142.642 44.1026 142.542 49.7461C146.078 43.9028 148.892 38.0595 150.984 32.2161C153.076 26.3229 154.122 20.954 154.122 16.1095C154.122 12.3139 153.424 10.416 152.03 10.416Z" fill="white"/>
<path d="M190.591 56.7131C191.238 56.7131 191.736 57.0128 192.085 57.6121C192.483 58.2114 192.683 59.0355 192.683 60.0843C192.683 62.082 192.21 63.6302 191.263 64.729C189.421 66.9764 186.806 69.049 183.419 70.9469C180.082 72.8447 176.496 73.7936 172.661 73.7936C167.432 73.7936 163.373 72.3702 160.484 69.5235C157.596 66.6768 156.151 62.7812 156.151 57.8369C156.151 54.3908 156.874 51.1944 158.318 48.2478C159.762 45.2512 161.754 42.8789 164.294 41.1309C166.884 39.3829 169.798 38.5089 173.035 38.5089C175.924 38.5089 178.24 39.3829 179.983 41.1309C181.726 42.829 182.597 45.1514 182.597 48.098C182.597 51.544 181.352 54.5157 178.862 57.0128C176.422 59.46 172.263 61.4078 166.386 62.8561C167.631 65.1535 169.997 66.3022 173.483 66.3022C175.724 66.3022 178.264 65.5281 181.103 63.9798C183.992 62.3817 186.482 60.309 188.574 57.7619C189.171 57.0627 189.844 56.7131 190.591 56.7131ZM171.765 45.8506C169.922 45.8506 168.353 46.9243 167.059 49.0719C165.813 51.2194 165.191 53.8164 165.191 56.863V57.0128C168.129 56.3136 170.445 55.2648 172.139 53.8664C173.832 52.468 174.679 50.8448 174.679 48.997C174.679 48.048 174.405 47.2989 173.857 46.7495C173.359 46.1502 172.661 45.8506 171.765 45.8506Z" fill="white"/>
<path d="M200.495 75.4417C197.905 75.4417 195.913 74.8424 194.519 73.6438C193.174 72.4452 192.502 71.0967 192.502 69.5984C192.502 68.2999 192.975 67.1762 193.921 66.2273C194.867 65.2784 196.262 64.8039 198.105 64.8039C198.752 64.8039 199.499 64.8788 200.346 65.0286C201.242 65.1285 201.915 65.2034 202.363 65.2534C202.313 63.9549 202.014 62.7313 201.466 61.5826C200.968 60.4339 200.321 59.3351 199.524 58.2863C198.727 57.1876 197.98 56.2387 197.283 55.4396C195.739 58.3862 194.195 60.8334 192.651 62.7812C191.157 64.729 189.513 66.5769 187.721 68.3249C186.824 69.2238 185.878 69.6733 184.882 69.6733C184.085 69.6733 183.437 69.3986 182.939 68.8493C182.441 68.25 182.192 67.5258 182.192 66.6768C182.192 65.6779 182.541 64.754 183.238 63.9049L184.209 62.7063C186.949 59.3102 189.015 56.5134 190.41 54.3159C191.306 52.8675 192.203 51.1445 193.099 49.1468C194.046 47.1491 195.266 44.4272 196.76 40.9811C197.706 38.7836 199.674 37.6849 202.662 37.6849C204.056 37.6849 205.027 37.8097 205.575 38.0595C206.123 38.3092 206.397 38.7087 206.397 39.2581C206.397 39.5577 206.297 40.0322 206.098 40.6815C205.899 41.3307 205.625 41.98 205.276 42.6292C204.38 44.4272 203.932 45.9504 203.932 47.199C203.932 47.9482 204.181 48.7722 204.679 49.6712C205.227 50.5702 206.048 51.6939 207.144 53.0423C208.738 55.1399 209.933 56.9379 210.73 58.4362C211.577 59.8845 212 61.4827 212 63.2307C212 65.3283 211.502 67.326 210.506 69.2238C209.56 71.0717 208.215 72.57 206.472 73.7187C204.729 74.8674 202.736 75.4417 200.495 75.4417Z" fill="white"/>
<path d="M32.0606 73.7936C26.134 73.7936 20.9792 72.7198 16.5965 70.5723C12.2137 68.3748 8.85197 65.2784 6.51118 61.2829C4.17039 57.2875 3 52.6428 3 47.3488C3 40.0072 4.36961 33.4897 7.10883 27.7962C9.89786 22.1027 13.6581 17.7077 18.3894 14.6112C23.1208 11.4648 28.3751 9.89164 34.1524 9.89164C39.5312 9.89164 43.6152 11.29 46.4042 14.0868C49.1932 16.8337 50.5877 20.4795 50.5877 25.0243C50.5877 28.0709 50.0399 30.5181 48.9442 32.366C47.8983 34.2138 46.3793 35.1378 44.3871 35.1378C42.9926 35.1378 41.8969 34.8132 41.1001 34.1639C40.3032 33.5146 39.9048 32.5657 39.9048 31.3172C39.9048 30.8677 40.0044 30.0436 40.2036 28.845C40.5024 27.3467 40.6518 26.1481 40.6518 25.2491C40.6518 20.7043 38.2363 18.4319 33.4053 18.4319C30.1183 18.4319 26.9806 19.5057 23.9924 21.6532C21.0042 23.8007 18.5887 26.9721 16.7459 31.1673C14.9032 35.3126 13.9818 40.2569 13.9818 46.0004C13.9818 51.9935 15.6502 56.6382 18.9871 59.9345C22.324 63.1808 27.2546 64.8039 33.7789 64.8039C37.0161 64.8039 40.2783 64.4044 43.5654 63.6053C46.9022 62.7562 50.5877 61.4827 54.6219 59.7846C55.3689 59.485 55.9915 59.3351 56.4895 59.3351C57.2864 59.3351 57.884 59.6348 58.2825 60.2341C58.6809 60.8334 58.8801 61.6076 58.8801 62.5565C58.8801 65.603 57.2366 67.8504 53.9495 69.2988C50.4134 70.847 46.7279 71.9957 42.893 72.7448C39.1079 73.444 35.4971 73.7936 32.0606 73.7936Z" stroke="black" stroke-opacity="0.1" stroke-width="6" mask="url(#path-1-outside-1_338_44957)"/>
<path d="M62.8057 33.5646C60.7139 33.5646 59.1451 33.0901 58.0992 32.1412C57.0533 31.1424 56.5304 29.7689 56.5304 28.0209C56.5304 26.2729 57.2027 24.8246 58.5474 23.6759C59.9419 22.4773 61.6602 21.8779 63.7021 21.8779C65.5449 21.8779 67.039 22.3274 68.1845 23.2264C69.33 24.1254 69.9027 25.3989 69.9027 27.047C69.9027 29.0448 69.2553 30.6429 67.9604 31.8416C66.6655 32.9902 64.9472 33.5646 62.8057 33.5646ZM62.208 73.7936C58.9708 73.7936 56.6051 72.6449 55.1109 70.3476C53.6666 68.0502 52.9445 65.0037 52.9445 61.208C52.9445 58.9606 53.2184 56.0889 53.7662 52.5928C54.3639 49.0469 55.111 45.7507 56.0074 42.7041C56.4557 41.106 57.0533 40.0072 57.8004 39.4079C58.5474 38.8086 59.7427 38.5089 61.3863 38.5089C63.9263 38.5089 65.1963 39.358 65.1963 41.056C65.1963 42.3046 64.7231 45.2013 63.7768 49.7461C62.5816 55.2398 61.9839 58.9606 61.9839 60.9083C61.9839 62.4066 62.1831 63.5553 62.5816 64.3544C62.98 65.1535 63.6523 65.553 64.5986 65.553C65.4951 65.553 66.6157 64.9288 67.9604 63.6802C69.3051 62.4316 71.098 60.4589 73.3392 57.7619C73.9369 57.0627 74.6092 56.7131 75.3563 56.7131C76.0037 56.7131 76.5018 57.0128 76.8504 57.6121C77.2488 58.2114 77.4481 59.0355 77.4481 60.0843C77.4481 62.082 76.9749 63.6302 76.0286 64.729C71.098 70.7721 66.4912 73.7936 62.208 73.7936Z" stroke="black" stroke-opacity="0.1" stroke-width="6" mask="url(#path-1-outside-1_338_44957)"/>
<path d="M76.708 73.7936C74.8154 73.7936 73.4707 72.7948 72.6739 70.7971C71.9268 68.7993 71.5533 65.603 71.5533 61.208C71.5533 54.7154 72.4747 48.5475 74.3174 42.7041C74.7656 41.2558 75.4878 40.207 76.4839 39.5577C77.5298 38.8585 78.9741 38.5089 80.8168 38.5089C81.8129 38.5089 82.5102 38.6338 82.9086 38.8835C83.307 39.1332 83.5062 39.6077 83.5062 40.3069C83.5062 41.106 83.1327 42.9039 82.3857 45.7007C81.8876 47.6984 81.4892 49.4464 81.1904 50.9447C80.8915 52.443 80.6425 54.2909 80.4433 56.4884C82.0868 52.1933 83.9296 48.6973 85.9715 46.0004C88.0135 43.3035 90.0057 41.3807 91.948 40.232C93.9402 39.0833 95.758 38.5089 97.4016 38.5089C100.639 38.5089 102.257 40.1321 102.257 43.3784C102.257 44.0276 102.033 45.6008 101.585 48.098C101.187 50.0957 100.987 51.3443 100.987 51.8437C100.987 53.5917 101.61 54.4657 102.855 54.4657C104.25 54.4657 106.043 53.367 108.234 51.1695C108.881 50.5202 109.554 50.1956 110.251 50.1956C110.898 50.1956 111.396 50.4952 111.745 51.0946C112.144 51.6439 112.343 52.3931 112.343 53.342C112.343 55.1899 111.845 56.6382 110.849 57.687C109.454 59.1354 107.811 60.3839 105.918 61.4328C104.075 62.4316 102.108 62.931 100.016 62.931C97.3767 62.931 95.3596 62.2568 93.9651 60.9083C92.6204 59.5599 91.948 57.737 91.948 55.4396C91.948 54.6905 92.0227 53.9413 92.1721 53.1922C92.2717 52.1933 92.3215 51.5191 92.3215 51.1695C92.3215 50.3704 92.0476 49.9708 91.4998 49.9708C90.7527 49.9708 89.7566 50.8199 88.5115 52.5179C87.3162 54.1661 86.1209 56.3635 84.9257 59.1104C83.7304 61.8573 82.7592 64.754 82.0121 67.8005C81.4643 70.1478 80.8168 71.746 80.0698 72.595C79.3725 73.3941 78.2519 73.7936 76.708 73.7936Z" stroke="black" stroke-opacity="0.1" stroke-width="6" mask="url(#path-1-outside-1_338_44957)"/>
<path d="M119.67 73.7936C114.789 73.7936 110.979 72.4202 108.24 69.6733C105.55 66.8765 104.206 63.2057 104.206 58.6609C104.206 54.6155 105.003 51.0696 106.596 48.0231C108.19 44.9766 110.257 42.6292 112.797 40.9811C115.337 39.333 118.001 38.5089 120.79 38.5089C123.53 38.5089 125.646 39.333 127.14 40.9811C128.684 42.5793 129.456 44.6519 129.456 47.199C129.456 49.2966 128.983 51.0696 128.037 52.5179C127.14 53.9663 125.945 54.6905 124.451 54.6905C123.505 54.6905 122.733 54.4657 122.135 54.0162C121.587 53.5667 121.313 52.9425 121.313 52.1434C121.313 51.7938 121.363 51.3942 121.463 50.9447C121.562 50.4952 121.637 50.1706 121.687 49.9708C121.936 49.2217 122.06 48.5225 122.06 47.8732C122.06 47.224 121.886 46.7246 121.537 46.375C121.239 46.0254 120.79 45.8506 120.193 45.8506C119.047 45.8506 117.976 46.375 116.98 47.4238C115.984 48.4226 115.187 49.796 114.59 51.544C113.992 53.292 113.693 55.2149 113.693 57.3125C113.693 63.1058 116.208 66.0025 121.239 66.0025C123.281 66.0025 125.472 65.3283 127.813 63.9798C130.203 62.5814 132.544 60.5088 134.835 57.7619C135.433 57.0627 136.105 56.7131 136.852 56.7131C137.5 56.7131 137.998 57.0128 138.346 57.6121C138.745 58.2114 138.944 59.0355 138.944 60.0843C138.944 61.9821 138.471 63.5303 137.525 64.729C135.184 67.6257 132.37 69.8731 129.083 71.4713C125.845 73.0195 122.708 73.7936 119.67 73.7936Z" stroke="black" stroke-opacity="0.1" stroke-width="6" mask="url(#path-1-outside-1_338_44957)"/>
<path d="M161.219 56.7131C161.866 56.7131 162.364 57.0128 162.713 57.6121C163.111 58.2114 163.31 59.0355 163.31 60.0843C163.31 62.082 162.837 63.6302 161.891 64.729C159.749 67.376 157.409 69.5485 154.869 71.2465C152.378 72.9446 149.54 73.7936 146.352 73.7936C141.969 73.7936 138.707 71.7959 136.566 67.8005C134.474 63.805 133.428 58.6359 133.428 52.2932C133.428 46.2002 134.2 39.2581 135.744 31.467C137.338 23.6759 139.653 16.9835 142.691 11.3899C145.779 5.79632 149.44 2.99951 153.673 2.99951C156.064 2.99951 157.932 4.12323 159.276 6.37066C160.671 8.56815 161.368 11.7395 161.368 15.8848C161.368 21.828 159.724 28.7201 156.437 36.5612C153.15 44.4022 148.693 52.1683 143.065 59.8595C143.414 61.9072 143.986 63.3805 144.783 64.2795C145.58 65.1285 146.626 65.553 147.921 65.553C149.963 65.553 151.756 64.9787 153.3 63.83C154.844 62.6314 156.811 60.6087 159.202 57.7619C159.799 57.0627 160.472 56.7131 161.219 56.7131ZM152.03 10.416C150.884 10.416 149.589 12.4887 148.145 16.6339C146.701 20.7792 145.431 25.9233 144.335 32.0663C143.239 38.2093 142.642 44.1026 142.542 49.7461C146.078 43.9028 148.892 38.0595 150.984 32.2161C153.076 26.3229 154.122 20.954 154.122 16.1095C154.122 12.3139 153.424 10.416 152.03 10.416Z" stroke="black" stroke-opacity="0.1" stroke-width="6" mask="url(#path-1-outside-1_338_44957)"/>
<path d="M190.591 56.7131C191.238 56.7131 191.736 57.0128 192.085 57.6121C192.483 58.2114 192.683 59.0355 192.683 60.0843C192.683 62.082 192.21 63.6302 191.263 64.729C189.421 66.9764 186.806 69.049 183.419 70.9469C180.082 72.8447 176.496 73.7936 172.661 73.7936C167.432 73.7936 163.373 72.3702 160.484 69.5235C157.596 66.6768 156.151 62.7812 156.151 57.8369C156.151 54.3908 156.874 51.1944 158.318 48.2478C159.762 45.2512 161.754 42.8789 164.294 41.1309C166.884 39.3829 169.798 38.5089 173.035 38.5089C175.924 38.5089 178.24 39.3829 179.983 41.1309C181.726 42.829 182.597 45.1514 182.597 48.098C182.597 51.544 181.352 54.5157 178.862 57.0128C176.422 59.46 172.263 61.4078 166.386 62.8561C167.631 65.1535 169.997 66.3022 173.483 66.3022C175.724 66.3022 178.264 65.5281 181.103 63.9798C183.992 62.3817 186.482 60.309 188.574 57.7619C189.171 57.0627 189.844 56.7131 190.591 56.7131ZM171.765 45.8506C169.922 45.8506 168.353 46.9243 167.059 49.0719C165.813 51.2194 165.191 53.8164 165.191 56.863V57.0128C168.129 56.3136 170.445 55.2648 172.139 53.8664C173.832 52.468 174.679 50.8448 174.679 48.997C174.679 48.048 174.405 47.2989 173.857 46.7495C173.359 46.1502 172.661 45.8506 171.765 45.8506Z" stroke="black" stroke-opacity="0.1" stroke-width="6" mask="url(#path-1-outside-1_338_44957)"/>
<path d="M200.495 75.4417C197.905 75.4417 195.913 74.8424 194.519 73.6438C193.174 72.4452 192.502 71.0967 192.502 69.5984C192.502 68.2999 192.975 67.1762 193.921 66.2273C194.867 65.2784 196.262 64.8039 198.105 64.8039C198.752 64.8039 199.499 64.8788 200.346 65.0286C201.242 65.1285 201.915 65.2034 202.363 65.2534C202.313 63.9549 202.014 62.7313 201.466 61.5826C200.968 60.4339 200.321 59.3351 199.524 58.2863C198.727 57.1876 197.98 56.2387 197.283 55.4396C195.739 58.3862 194.195 60.8334 192.651 62.7812C191.157 64.729 189.513 66.5769 187.721 68.3249C186.824 69.2238 185.878 69.6733 184.882 69.6733C184.085 69.6733 183.437 69.3986 182.939 68.8493C182.441 68.25 182.192 67.5258 182.192 66.6768C182.192 65.6779 182.541 64.754 183.238 63.9049L184.209 62.7063C186.949 59.3102 189.015 56.5134 190.41 54.3159C191.306 52.8675 192.203 51.1445 193.099 49.1468C194.046 47.1491 195.266 44.4272 196.76 40.9811C197.706 38.7836 199.674 37.6849 202.662 37.6849C204.056 37.6849 205.027 37.8097 205.575 38.0595C206.123 38.3092 206.397 38.7087 206.397 39.2581C206.397 39.5577 206.297 40.0322 206.098 40.6815C205.899 41.3307 205.625 41.98 205.276 42.6292C204.38 44.4272 203.932 45.9504 203.932 47.199C203.932 47.9482 204.181 48.7722 204.679 49.6712C205.227 50.5702 206.048 51.6939 207.144 53.0423C208.738 55.1399 209.933 56.9379 210.73 58.4362C211.577 59.8845 212 61.4827 212 63.2307C212 65.3283 211.502 67.326 210.506 69.2238C209.56 71.0717 208.215 72.57 206.472 73.7187C204.729 74.8674 202.736 75.4417 200.495 75.4417Z" stroke="black" stroke-opacity="0.1" stroke-width="6" mask="url(#path-1-outside-1_338_44957)"/>
</svg>
