<svg width="209" height="73" viewBox="0 0 209 73" fill="none" xmlns="http://www.w3.org/2000/svg">
<path d="M29.0606 70.7941C23.134 70.7941 17.9792 69.7203 13.5965 67.5728C9.21374 65.3753 5.85197 62.2788 3.51118 58.2834C1.17039 54.288 0 49.6433 0 44.3493C0 37.0077 1.36961 30.4902 4.10883 24.7967C6.89786 19.1032 10.6581 14.7082 15.3894 11.6117C20.1208 8.46533 25.3751 6.89213 31.1524 6.89213C36.5312 6.89213 40.6152 8.29053 43.4042 11.0873C46.1932 13.8342 47.5877 17.48 47.5877 22.0248C47.5877 25.0714 47.0399 27.5186 45.9442 29.3664C44.8983 31.2143 43.3793 32.1383 41.3871 32.1383C39.9926 32.1383 38.8969 31.8137 38.1001 31.1644C37.3032 30.5151 36.9048 29.5662 36.9048 28.3176C36.9048 27.8682 37.0044 27.0441 37.2036 25.8455C37.5024 24.3472 37.6518 23.1486 37.6518 22.2496C37.6518 17.7048 35.2363 15.4324 30.4053 15.4324C27.1183 15.4324 23.9806 16.5061 20.9924 18.6537C18.0042 20.8012 15.5887 23.9726 13.7459 28.1678C11.9032 32.3131 10.9818 37.2574 10.9818 43.0009C10.9818 48.994 12.6502 53.6387 15.9871 56.935C19.324 60.1812 24.2546 61.8044 30.7789 61.8044C34.0161 61.8044 37.2783 61.4048 40.5654 60.6058C43.9022 59.7567 47.5877 58.4832 51.6219 56.7851C52.3689 56.4855 52.9915 56.3356 53.4895 56.3356C54.2864 56.3356 54.884 56.6353 55.2825 57.2346C55.6809 57.8339 55.8801 58.608 55.8801 59.557C55.8801 62.6035 54.2366 64.8509 50.9495 66.2992C47.4134 67.8475 43.7279 68.9962 39.893 69.7453C36.1079 70.4445 32.4971 70.7941 29.0606 70.7941Z" fill="#6171F7"/>
<path d="M59.8057 30.5651C57.7139 30.5651 56.1451 30.0906 55.0992 29.1417C54.0533 28.1428 53.5304 26.7694 53.5304 25.0214C53.5304 23.2734 54.2027 21.8251 55.5474 20.6764C56.9419 19.4777 58.6602 18.8784 60.7021 18.8784C62.5449 18.8784 64.039 19.3279 65.1845 20.2269C66.33 21.1259 66.9027 22.3994 66.9027 24.0475C66.9027 26.0452 66.2553 27.6434 64.9604 28.842C63.6655 29.9907 61.9472 30.5651 59.8057 30.5651ZM59.208 70.7941C55.9708 70.7941 53.6051 69.6454 52.1109 67.3481C50.6666 65.0507 49.9445 62.0042 49.9445 58.2085C49.9445 55.9611 50.2184 53.0893 50.7662 49.5933C51.3639 46.0474 52.111 42.7512 53.0074 39.7046C53.4557 38.1065 54.0533 37.0077 54.8004 36.4084C55.5474 35.8091 56.7427 35.5094 58.3863 35.5094C60.9263 35.5094 62.1963 36.3585 62.1963 38.0565C62.1963 39.3051 61.7231 42.2018 60.7768 46.7466C59.5816 52.2403 58.9839 55.9611 58.9839 57.9088C58.9839 59.4071 59.1831 60.5558 59.5816 61.3549C59.98 62.154 60.6523 62.5535 61.5986 62.5535C62.4951 62.5535 63.6157 61.9292 64.9604 60.6807C66.3051 59.4321 68.098 57.4594 70.3392 54.7624C70.9369 54.0632 71.6092 53.7136 72.3563 53.7136C73.0037 53.7136 73.5018 54.0133 73.8504 54.6126C74.2488 55.2119 74.4481 56.036 74.4481 57.0848C74.4481 59.0825 73.9749 60.6307 73.0286 61.7295C68.098 67.7726 63.4912 70.7941 59.208 70.7941Z" fill="#6171F7"/>
<path d="M73.708 70.7941C71.8154 70.7941 70.4707 69.7953 69.6739 67.7975C68.9268 65.7998 68.5533 62.6035 68.5533 58.2085C68.5533 51.7159 69.4747 45.548 71.3174 39.7046C71.7656 38.2563 72.4878 37.2075 73.4839 36.5582C74.5298 35.859 75.9741 35.5094 77.8168 35.5094C78.8129 35.5094 79.5102 35.6343 79.9086 35.884C80.307 36.1337 80.5062 36.6082 80.5062 37.3074C80.5062 38.1065 80.1327 39.9044 79.3857 42.7012C78.8876 44.6989 78.4892 46.4469 78.1904 47.9452C77.8915 49.4435 77.6425 51.2914 77.4433 53.4889C79.0868 49.1938 80.9296 45.6978 82.9715 43.0009C85.0135 40.304 87.0057 38.3811 88.948 37.2325C90.9402 36.0838 92.758 35.5094 94.4016 35.5094C97.6388 35.5094 99.2574 37.1326 99.2574 40.3789C99.2574 41.0281 99.0333 42.6013 98.5851 45.0985C98.1867 47.0962 97.9874 48.3448 97.9874 48.8442C97.9874 50.5922 98.61 51.4662 99.8551 51.4662C101.25 51.4662 103.043 50.3675 105.234 48.17C105.881 47.5207 106.554 47.1961 107.251 47.1961C107.898 47.1961 108.396 47.4957 108.745 48.0951C109.144 48.6444 109.343 49.3936 109.343 50.3425C109.343 52.1904 108.845 53.6387 107.849 54.6875C106.454 56.1359 104.811 57.3844 102.918 58.4332C101.075 59.4321 99.108 59.9315 97.0163 59.9315C94.3767 59.9315 92.3596 59.2573 90.9651 57.9088C89.6204 56.5604 88.948 54.7375 88.948 52.4401C88.948 51.6909 89.0227 50.9418 89.1721 50.1927C89.2717 49.1938 89.3215 48.5196 89.3215 48.17C89.3215 47.3709 89.0476 46.9713 88.4998 46.9713C87.7527 46.9713 86.7566 47.8204 85.5115 49.5184C84.3162 51.1665 83.1209 53.364 81.9257 56.1109C80.7304 58.8577 79.7592 61.7544 79.0121 64.801C78.4643 67.1483 77.8168 68.7465 77.0698 69.5955C76.3725 70.3946 75.2519 70.7941 73.708 70.7941Z" fill="#6171F7"/>
<path d="M116.67 70.7941C111.789 70.7941 107.979 69.4207 105.24 66.6738C102.55 63.877 101.206 60.2062 101.206 55.6614C101.206 51.616 102.003 48.0701 103.596 45.0236C105.19 41.977 107.257 39.6297 109.797 37.9816C112.337 36.3335 115.001 35.5094 117.79 35.5094C120.53 35.5094 122.646 36.3335 124.14 37.9816C125.684 39.5798 126.456 41.6524 126.456 44.1995C126.456 46.2971 125.983 48.0701 125.037 49.5184C124.14 50.9668 122.945 51.6909 121.451 51.6909C120.505 51.6909 119.733 51.4662 119.135 51.0167C118.587 50.5672 118.313 49.9429 118.313 49.1439C118.313 48.7943 118.363 48.3947 118.463 47.9452C118.562 47.4957 118.637 47.1711 118.687 46.9713C118.936 46.2222 119.06 45.523 119.06 44.8737C119.06 44.2245 118.886 43.725 118.537 43.3754C118.239 43.0258 117.79 42.851 117.193 42.851C116.047 42.851 114.976 43.3754 113.98 44.4242C112.984 45.4231 112.187 46.7965 111.59 48.5445C110.992 50.2925 110.693 52.2153 110.693 54.3129C110.693 60.1063 113.208 63.003 118.239 63.003C120.281 63.003 122.472 62.3288 124.813 60.9803C127.203 59.5819 129.544 57.5093 131.835 54.7624C132.433 54.0632 133.105 53.7136 133.852 53.7136C134.5 53.7136 134.998 54.0133 135.346 54.6126C135.745 55.2119 135.944 56.036 135.944 57.0848C135.944 58.9826 135.471 60.5308 134.525 61.7295C132.184 64.6262 129.37 66.8736 126.083 68.4718C122.845 70.02 119.708 70.7941 116.67 70.7941Z" fill="#6171F7"/>
<path d="M158.219 53.7136C158.866 53.7136 159.364 54.0133 159.713 54.6126C160.111 55.2119 160.31 56.036 160.31 57.0848C160.31 59.0825 159.837 60.6307 158.891 61.7295C156.749 64.3764 154.409 66.549 151.869 68.247C149.378 69.9451 146.54 70.7941 143.352 70.7941C138.969 70.7941 135.707 68.7964 133.566 64.801C131.474 60.8055 130.428 55.6364 130.428 49.2937C130.428 43.2006 131.2 36.2586 132.744 28.4675C134.338 20.6764 136.653 13.984 139.691 8.39041C142.779 2.7968 146.44 0 150.673 0C153.064 0 154.932 1.12372 156.276 3.37115C157.671 5.56864 158.368 8.74002 158.368 12.8853C158.368 18.8285 156.724 25.7206 153.437 33.5617C150.15 41.4027 145.693 49.1688 140.065 56.86C140.414 58.9077 140.986 60.381 141.783 61.28C142.58 62.129 143.626 62.5535 144.921 62.5535C146.963 62.5535 148.756 61.9792 150.3 60.8305C151.844 59.6319 153.811 57.6092 156.202 54.7624C156.799 54.0632 157.472 53.7136 158.219 53.7136ZM149.03 7.41653C147.884 7.41653 146.589 9.48916 145.145 13.6344C143.701 17.7797 142.431 22.9238 141.335 29.0668C140.239 35.2098 139.642 41.103 139.542 46.7466C143.078 40.9033 145.892 35.0599 147.984 29.2166C150.076 23.3234 151.122 17.9545 151.122 13.11C151.122 9.31436 150.424 7.41653 149.03 7.41653Z" fill="#6171F7"/>
<path d="M187.591 53.7136C188.238 53.7136 188.736 54.0133 189.085 54.6126C189.483 55.2119 189.683 56.036 189.683 57.0848C189.683 59.0825 189.21 60.6307 188.263 61.7295C186.421 63.9769 183.806 66.0495 180.419 67.9474C177.082 69.8452 173.496 70.7941 169.661 70.7941C164.432 70.7941 160.373 69.3707 157.484 66.524C154.596 63.6772 153.151 59.7817 153.151 54.8373C153.151 51.3913 153.874 48.1949 155.318 45.2483C156.762 42.2517 158.754 39.8794 161.294 38.1314C163.884 36.3834 166.798 35.5094 170.035 35.5094C172.924 35.5094 175.24 36.3834 176.983 38.1314C178.726 39.8295 179.597 42.1518 179.597 45.0985C179.597 48.5445 178.352 51.5161 175.862 54.0133C173.422 56.4605 169.263 58.4083 163.386 59.8566C164.631 62.154 166.997 63.3027 170.483 63.3027C172.724 63.3027 175.264 62.5286 178.103 60.9803C180.992 59.3822 183.482 57.3095 185.574 54.7624C186.171 54.0632 186.844 53.7136 187.591 53.7136ZM168.765 42.851C166.922 42.851 165.353 43.9248 164.059 46.0724C162.813 48.2199 162.191 50.8169 162.191 53.8635V54.0133C165.129 53.3141 167.445 52.2653 169.139 50.8669C170.832 49.4685 171.679 47.8453 171.679 45.9974C171.679 45.0485 171.405 44.2994 170.857 43.75C170.359 43.1507 169.661 42.851 168.765 42.851Z" fill="#6171F7"/>
<path d="M197.495 72.4422C194.905 72.4422 192.913 71.8429 191.519 70.6443C190.174 69.4457 189.502 68.0972 189.502 66.5989C189.502 65.3004 189.975 64.1767 190.921 63.2278C191.867 62.2788 193.262 61.8044 195.105 61.8044C195.752 61.8044 196.499 61.8793 197.346 62.0291C198.242 62.129 198.915 62.2039 199.363 62.2539C199.313 60.9554 199.014 59.7318 198.466 58.5831C197.968 57.4344 197.321 56.3356 196.524 55.2868C195.727 54.1881 194.98 53.2392 194.283 52.4401C192.739 55.3867 191.195 57.8339 189.651 59.7817C188.157 61.7295 186.513 63.5774 184.721 65.3254C183.824 66.2243 182.878 66.6738 181.882 66.6738C181.085 66.6738 180.437 66.3991 179.939 65.8498C179.441 65.2504 179.192 64.5263 179.192 63.6772C179.192 62.6784 179.541 61.7544 180.238 60.9054L181.209 59.7068C183.949 56.3107 186.015 53.5139 187.41 51.3164C188.306 49.868 189.203 48.145 190.099 46.1473C191.046 44.1496 192.266 41.4277 193.76 37.9816C194.706 35.7841 196.674 34.6854 199.662 34.6854C201.056 34.6854 202.027 34.8102 202.575 35.0599C203.123 35.3097 203.397 35.7092 203.397 36.2586C203.397 36.5582 203.297 37.0327 203.098 37.6819C202.899 38.3312 202.625 38.9805 202.276 39.6297C201.38 41.4277 200.932 42.9509 200.932 44.1995C200.932 44.9486 201.181 45.7727 201.679 46.6717C202.227 47.5706 203.048 48.6944 204.144 50.0428C205.738 52.1404 206.933 53.9384 207.73 55.4367C208.577 56.885 209 58.4832 209 60.2312C209 62.3288 208.502 64.3265 207.506 66.2243C206.56 68.0722 205.215 69.5705 203.472 70.7192C201.729 71.8679 199.736 72.4422 197.495 72.4422Z" fill="#6171F7"/>
</svg>
